<svg width="400" height="400" viewBox="0 0 400 400" fill="none" xmlns="http://www.w3.org/2000/svg">
<circle cx="200" cy="200" r="200" fill="#666666"/>
<path d="M127.939 272L138.179 249.6H140.515L150.755 272H148.259L138.851 250.976H139.811L130.403 272H127.939ZM131.971 266.016L132.675 264.096H145.699L146.403 266.016H131.971ZM160.512 272.16C158.912 272.16 157.472 271.797 156.192 271.072C154.934 270.347 153.942 269.344 153.216 268.064C152.491 266.763 152.128 265.269 152.128 263.584C152.128 261.877 152.491 260.384 153.216 259.104C153.942 257.824 154.934 256.832 156.192 256.128C157.472 255.403 158.912 255.04 160.512 255.04C161.984 255.04 163.296 255.371 164.448 256.032C165.622 256.693 166.55 257.664 167.232 258.944C167.936 260.203 168.288 261.749 168.288 263.584C168.288 265.397 167.947 266.944 167.264 268.224C166.582 269.504 165.654 270.485 164.48 271.168C163.328 271.829 162.006 272.16 160.512 272.16ZM160.672 270.144C161.867 270.144 162.934 269.877 163.872 269.344C164.832 268.789 165.579 268.021 166.112 267.04C166.667 266.037 166.944 264.885 166.944 263.584C166.944 262.261 166.667 261.109 166.112 260.128C165.579 259.147 164.832 258.389 163.872 257.856C162.934 257.301 161.867 257.024 160.672 257.024C159.499 257.024 158.443 257.301 157.504 257.856C156.566 258.389 155.819 259.147 155.264 260.128C154.71 261.109 154.432 262.261 154.432 263.584C154.432 264.885 154.71 266.037 155.264 267.04C155.819 268.021 156.566 268.789 157.504 269.344C158.443 269.877 159.499 270.144 160.672 270.144ZM167.008 272V266.944L167.232 263.552L166.912 260.16V248.256H169.184V272H167.008ZM182.488 272.16C180.824 272.16 179.33 271.797 178.008 271.072C176.706 270.325 175.682 269.312 174.936 268.032C174.189 266.731 173.816 265.248 173.816 263.584C173.816 261.899 174.189 260.416 174.936 259.136C175.682 257.856 176.706 256.853 178.008 256.128C179.33 255.403 180.824 255.04 182.488 255.04C183.917 255.04 185.208 255.317 186.36 255.872C187.512 256.427 188.418 257.259 189.08 258.368L187.384 259.52C186.808 258.667 186.093 258.037 185.24 257.632C184.386 257.227 183.458 257.024 182.456 257.024C181.261 257.024 180.184 257.301 179.224 257.856C178.264 258.389 177.506 259.147 176.952 260.128C176.397 261.109 176.12 262.261 176.12 263.584C176.12 264.907 176.397 266.059 176.952 267.04C177.506 268.021 178.264 268.789 179.224 269.344C180.184 269.877 181.261 270.144 182.456 270.144C183.458 270.144 184.386 269.941 185.24 269.536C186.093 269.131 186.808 268.512 187.384 267.68L189.08 268.832C188.418 269.92 187.512 270.752 186.36 271.328C185.208 271.883 183.917 272.16 182.488 272.16ZM193.293 272V255.2H195.565V272H193.293ZM194.445 251.488C193.976 251.488 193.581 251.328 193.261 251.008C192.941 250.688 192.781 250.304 192.781 249.856C192.781 249.408 192.941 249.035 193.261 248.736C193.581 248.416 193.976 248.256 194.445 248.256C194.914 248.256 195.309 248.405 195.629 248.704C195.949 249.003 196.109 249.376 196.109 249.824C196.109 250.293 195.949 250.688 195.629 251.008C195.33 251.328 194.936 251.488 194.445 251.488ZM208.735 272.16C207.113 272.16 205.652 271.797 204.351 271.072C203.071 270.325 202.057 269.312 201.311 268.032C200.564 266.731 200.191 265.248 200.191 263.584C200.191 261.899 200.564 260.416 201.311 259.136C202.057 257.856 203.071 256.853 204.351 256.128C205.631 255.403 207.092 255.04 208.735 255.04C210.399 255.04 211.871 255.403 213.151 256.128C214.452 256.853 215.465 257.856 216.191 259.136C216.937 260.416 217.311 261.899 217.311 263.584C217.311 265.248 216.937 266.731 216.191 268.032C215.465 269.312 214.452 270.325 213.151 271.072C211.849 271.797 210.377 272.16 208.735 272.16ZM208.735 270.144C209.951 270.144 211.028 269.877 211.967 269.344C212.905 268.789 213.641 268.021 214.175 267.04C214.729 266.037 215.007 264.885 215.007 263.584C215.007 262.261 214.729 261.109 214.175 260.128C213.641 259.147 212.905 258.389 211.967 257.856C211.028 257.301 209.961 257.024 208.767 257.024C207.572 257.024 206.505 257.301 205.567 257.856C204.628 258.389 203.881 259.147 203.327 260.128C202.772 261.109 202.495 262.261 202.495 263.584C202.495 264.885 202.772 266.037 203.327 267.04C203.881 268.021 204.628 268.789 205.567 269.344C206.505 269.877 207.561 270.144 208.735 270.144ZM230.525 255.04C231.891 255.04 233.085 255.307 234.109 255.84C235.155 256.352 235.965 257.141 236.541 258.208C237.139 259.275 237.437 260.619 237.437 262.24V272H235.165V262.464C235.165 260.693 234.717 259.36 233.821 258.464C232.947 257.547 231.709 257.088 230.109 257.088C228.915 257.088 227.869 257.333 226.973 257.824C226.099 258.293 225.416 258.987 224.925 259.904C224.456 260.8 224.221 261.888 224.221 263.168V272H221.949V255.2H224.125V259.808L223.773 258.944C224.307 257.728 225.16 256.779 226.333 256.096C227.507 255.392 228.904 255.04 230.525 255.04ZM254.102 272V268.288L254.006 267.68V261.472C254.006 260.043 253.601 258.944 252.79 258.176C252.001 257.408 250.817 257.024 249.238 257.024C248.15 257.024 247.116 257.205 246.134 257.568C245.153 257.931 244.321 258.411 243.638 259.008L242.614 257.312C243.468 256.587 244.492 256.032 245.686 255.648C246.881 255.243 248.14 255.04 249.462 255.04C251.638 255.04 253.313 255.584 254.486 256.672C255.681 257.739 256.278 259.371 256.278 261.568V272H254.102ZM248.31 272.16C247.052 272.16 245.953 271.957 245.014 271.552C244.097 271.125 243.393 270.549 242.902 269.824C242.412 269.077 242.166 268.224 242.166 267.264C242.166 266.389 242.369 265.6 242.774 264.896C243.201 264.171 243.884 263.595 244.822 263.168C245.782 262.72 247.062 262.496 248.662 262.496H254.454V264.192H248.726C247.105 264.192 245.974 264.48 245.334 265.056C244.716 265.632 244.406 266.347 244.406 267.2C244.406 268.16 244.78 268.928 245.526 269.504C246.273 270.08 247.318 270.368 248.662 270.368C249.942 270.368 251.041 270.08 251.958 269.504C252.897 268.907 253.58 268.053 254.006 266.944L254.518 268.512C254.092 269.621 253.345 270.507 252.278 271.168C251.233 271.829 249.91 272.16 248.31 272.16ZM262.449 272V255.2H264.625V259.776L264.401 258.976C264.871 257.696 265.66 256.725 266.769 256.064C267.879 255.381 269.255 255.04 270.897 255.04V257.248C270.812 257.248 270.727 257.248 270.641 257.248C270.556 257.227 270.471 257.216 270.385 257.216C268.615 257.216 267.228 257.76 266.225 258.848C265.223 259.915 264.721 261.44 264.721 263.424V272H262.449ZM95.385 298.616H107.225V300.632H95.385V298.616ZM95.641 308.952H109.113V311H93.273V288.6H108.633V290.648H95.641V308.952ZM120.637 311.16C119.037 311.16 117.597 310.797 116.317 310.072C115.059 309.347 114.067 308.344 113.341 307.064C112.616 305.784 112.253 304.291 112.253 302.584C112.253 300.899 112.616 299.416 113.341 298.136C114.067 296.835 115.059 295.832 116.317 295.128C117.597 294.403 119.037 294.04 120.637 294.04C122.131 294.04 123.453 294.371 124.605 295.032C125.779 295.693 126.707 296.664 127.389 297.944C128.072 299.203 128.413 300.749 128.413 302.584C128.413 304.419 128.061 305.976 127.357 307.256C126.675 308.515 125.747 309.485 124.573 310.168C123.421 310.829 122.109 311.16 120.637 311.16ZM120.797 309.144C121.992 309.144 123.059 308.877 123.997 308.344C124.957 307.789 125.704 307.021 126.237 306.04C126.792 305.037 127.069 303.885 127.069 302.584C127.069 301.283 126.792 300.141 126.237 299.16C125.704 298.179 124.957 297.411 123.997 296.856C123.059 296.301 121.992 296.024 120.797 296.024C119.624 296.024 118.568 296.301 117.629 296.856C116.691 297.411 115.944 298.179 115.389 299.16C114.835 300.141 114.557 301.283 114.557 302.584C114.557 303.885 114.835 305.037 115.389 306.04C115.944 307.021 116.691 307.789 117.629 308.344C118.568 308.877 119.624 309.144 120.797 309.144ZM127.037 317.208V306.008L127.357 302.616L127.133 299.256V294.2H129.309V317.208H127.037ZM142.581 311.16C141.151 311.16 139.903 310.893 138.837 310.36C137.77 309.827 136.938 309.027 136.341 307.96C135.765 306.893 135.477 305.56 135.477 303.96V294.2H137.749V303.704C137.749 305.496 138.186 306.851 139.061 307.768C139.957 308.664 141.205 309.112 142.805 309.112C143.978 309.112 144.991 308.877 145.845 308.408C146.719 307.917 147.381 307.213 147.829 306.296C148.298 305.379 148.533 304.28 148.533 303V294.2H150.805V311H148.629V306.392L148.981 307.224C148.447 308.461 147.615 309.432 146.485 310.136C145.375 310.819 144.074 311.16 142.581 311.16ZM157.137 311V294.2H159.409V311H157.137ZM158.289 290.488C157.819 290.488 157.425 290.328 157.105 290.008C156.785 289.688 156.625 289.304 156.625 288.856C156.625 288.408 156.785 288.035 157.105 287.736C157.425 287.416 157.819 287.256 158.289 287.256C158.758 287.256 159.153 287.405 159.473 287.704C159.793 288.003 159.953 288.376 159.953 288.824C159.953 289.293 159.793 289.688 159.473 290.008C159.174 290.328 158.779 290.488 158.289 290.488ZM174.403 311.16C172.952 311.16 171.64 310.829 170.467 310.168C169.293 309.485 168.355 308.515 167.651 307.256C166.968 305.976 166.627 304.419 166.627 302.584C166.627 300.749 166.968 299.203 167.651 297.944C168.333 296.664 169.261 295.693 170.435 295.032C171.608 294.371 172.931 294.04 174.403 294.04C176.003 294.04 177.432 294.403 178.691 295.128C179.971 295.832 180.973 296.835 181.699 298.136C182.424 299.416 182.787 300.899 182.787 302.584C182.787 304.291 182.424 305.784 181.699 307.064C180.973 308.344 179.971 309.347 178.691 310.072C177.432 310.797 176.003 311.16 174.403 311.16ZM165.731 317.208V294.2H167.907V299.256L167.683 302.616L168.003 306.008V317.208H165.731ZM174.243 309.144C175.437 309.144 176.504 308.877 177.443 308.344C178.381 307.789 179.128 307.021 179.683 306.04C180.237 305.037 180.515 303.885 180.515 302.584C180.515 301.283 180.237 300.141 179.683 299.16C179.128 298.179 178.381 297.411 177.443 296.856C176.504 296.301 175.437 296.024 174.243 296.024C173.048 296.024 171.971 296.301 171.01 296.856C170.072 297.411 169.325 298.179 168.771 299.16C168.237 300.141 167.971 301.283 167.971 302.584C167.971 303.885 168.237 305.037 168.771 306.04C169.325 307.021 170.072 307.789 171.01 308.344C171.971 308.877 173.048 309.144 174.243 309.144ZM197.852 311V307.288L197.756 306.68V300.472C197.756 299.043 197.351 297.944 196.54 297.176C195.751 296.408 194.567 296.024 192.988 296.024C191.9 296.024 190.866 296.205 189.884 296.568C188.903 296.931 188.071 297.411 187.388 298.008L186.364 296.312C187.218 295.587 188.242 295.032 189.436 294.648C190.631 294.243 191.89 294.04 193.212 294.04C195.388 294.04 197.063 294.584 198.236 295.672C199.431 296.739 200.028 298.371 200.028 300.568V311H197.852ZM192.06 311.16C190.802 311.16 189.703 310.957 188.764 310.552C187.847 310.125 187.143 309.549 186.652 308.824C186.162 308.077 185.916 307.224 185.916 306.264C185.916 305.389 186.119 304.6 186.524 303.896C186.951 303.171 187.634 302.595 188.572 302.168C189.532 301.72 190.812 301.496 192.412 301.496H198.204V303.192H192.476C190.855 303.192 189.724 303.48 189.084 304.056C188.466 304.632 188.156 305.347 188.156 306.2C188.156 307.16 188.53 307.928 189.276 308.504C190.023 309.08 191.068 309.368 192.412 309.368C193.692 309.368 194.791 309.08 195.708 308.504C196.647 307.907 197.33 307.053 197.756 305.944L198.268 307.512C197.842 308.621 197.095 309.507 196.028 310.168C194.983 310.829 193.66 311.16 192.06 311.16ZM227.191 294.04C228.557 294.04 229.741 294.307 230.743 294.84C231.767 295.352 232.557 296.141 233.111 297.208C233.687 298.275 233.975 299.619 233.975 301.24V311H231.703V301.464C231.703 299.693 231.277 298.36 230.423 297.464C229.591 296.547 228.407 296.088 226.871 296.088C225.719 296.088 224.717 296.333 223.863 296.824C223.031 297.293 222.381 297.987 221.911 298.904C221.463 299.8 221.239 300.888 221.239 302.168V311H218.967V301.464C218.967 299.693 218.541 298.36 217.687 297.464C216.834 296.547 215.639 296.088 214.103 296.088C212.973 296.088 211.981 296.333 211.127 296.824C210.274 297.293 209.613 297.987 209.143 298.904C208.695 299.8 208.471 300.888 208.471 302.168V311H206.199V294.2H208.375V298.744L208.023 297.944C208.535 296.728 209.357 295.779 210.487 295.096C211.639 294.392 212.994 294.04 214.551 294.04C216.194 294.04 217.591 294.456 218.743 295.288C219.895 296.099 220.642 297.325 220.983 298.968L220.087 298.616C220.578 297.251 221.442 296.152 222.679 295.32C223.938 294.467 225.442 294.04 227.191 294.04ZM247.273 311.16C245.523 311.16 243.987 310.797 242.665 310.072C241.342 309.325 240.307 308.312 239.561 307.032C238.814 305.731 238.441 304.248 238.441 302.584C238.441 300.92 238.793 299.448 239.497 298.168C240.222 296.888 241.203 295.885 242.441 295.16C243.699 294.413 245.107 294.04 246.665 294.04C248.243 294.04 249.641 294.403 250.857 295.128C252.094 295.832 253.065 296.835 253.769 298.136C254.473 299.416 254.825 300.899 254.825 302.584C254.825 302.691 254.814 302.808 254.793 302.936C254.793 303.043 254.793 303.16 254.793 303.288H240.169V301.592H253.577L252.681 302.264C252.681 301.048 252.414 299.971 251.881 299.032C251.369 298.072 250.665 297.325 249.769 296.792C248.873 296.259 247.838 295.992 246.665 295.992C245.513 295.992 244.478 296.259 243.561 296.792C242.643 297.325 241.929 298.072 241.417 299.032C240.905 299.992 240.649 301.091 240.649 302.328V302.68C240.649 303.96 240.926 305.091 241.481 306.072C242.057 307.032 242.846 307.789 243.849 308.344C244.873 308.877 246.035 309.144 247.337 309.144C248.361 309.144 249.31 308.963 250.185 308.6C251.081 308.237 251.849 307.683 252.489 306.936L253.769 308.408C253.022 309.304 252.083 309.987 250.953 310.456C249.843 310.925 248.617 311.16 247.273 311.16ZM268.025 294.04C269.391 294.04 270.585 294.307 271.609 294.84C272.655 295.352 273.465 296.141 274.041 297.208C274.639 298.275 274.937 299.619 274.937 301.24V311H272.665V301.464C272.665 299.693 272.217 298.36 271.321 297.464C270.447 296.547 269.209 296.088 267.609 296.088C266.415 296.088 265.369 296.333 264.473 296.824C263.599 297.293 262.916 297.987 262.425 298.904C261.956 299.8 261.721 300.888 261.721 302.168V311H259.449V294.2H261.625V298.808L261.273 297.944C261.807 296.728 262.66 295.779 263.833 295.096C265.007 294.392 266.404 294.04 268.025 294.04ZM286.386 311.16C284.808 311.16 283.592 310.733 282.738 309.88C281.885 309.027 281.458 307.821 281.458 306.264V290.488H283.73V306.136C283.73 307.117 283.976 307.875 284.466 308.408C284.978 308.941 285.704 309.208 286.642 309.208C287.645 309.208 288.477 308.92 289.138 308.344L289.938 309.976C289.49 310.381 288.946 310.68 288.306 310.872C287.688 311.064 287.048 311.16 286.386 311.16ZM278.45 296.088V294.2H288.85V296.088H278.45ZM300.329 311.16C298.707 311.16 297.246 310.797 295.945 310.072C294.665 309.325 293.651 308.312 292.905 307.032C292.158 305.731 291.785 304.248 291.785 302.584C291.785 300.899 292.158 299.416 292.905 298.136C293.651 296.856 294.665 295.853 295.945 295.128C297.225 294.403 298.686 294.04 300.329 294.04C301.993 294.04 303.465 294.403 304.745 295.128C306.046 295.853 307.059 296.856 307.785 298.136C308.531 299.416 308.905 300.899 308.905 302.584C308.905 304.248 308.531 305.731 307.785 307.032C307.059 308.312 306.046 309.325 304.745 310.072C303.443 310.797 301.971 311.16 300.329 311.16ZM300.329 309.144C301.545 309.144 302.622 308.877 303.561 308.344C304.499 307.789 305.235 307.021 305.769 306.04C306.323 305.037 306.601 303.885 306.601 302.584C306.601 301.261 306.323 300.109 305.769 299.128C305.235 298.147 304.499 297.389 303.561 296.856C302.622 296.301 301.555 296.024 300.361 296.024C299.166 296.024 298.099 296.301 297.161 296.856C296.222 297.389 295.475 298.147 294.921 299.128C294.366 300.109 294.089 301.261 294.089 302.584C294.089 303.885 294.366 305.037 294.921 306.04C295.475 307.021 296.222 307.789 297.161 308.344C298.099 308.877 299.155 309.144 300.329 309.144Z" fill="white"/>
<path d="M200 68.75C200 66.4294 200.922 64.2038 202.563 62.5628C204.204 60.9219 206.429 60 208.75 60H261.25C263.571 60 265.796 60.9219 267.437 62.5628C269.078 64.2038 270 66.4294 270 68.75V191.25C270 193.571 269.078 195.796 267.437 197.437C265.796 199.078 263.571 200 261.25 200H208.75C206.429 200 204.204 199.078 202.563 197.437C200.922 195.796 200 193.571 200 191.25V68.75ZM208.75 186.875C208.75 188.035 209.211 189.148 210.031 189.969C210.852 190.789 211.965 191.25 213.125 191.25C214.285 191.25 215.398 190.789 216.219 189.969C217.039 189.148 217.5 188.035 217.5 186.875C217.5 185.715 217.039 184.602 216.219 183.781C215.398 182.961 214.285 182.5 213.125 182.5C211.965 182.5 210.852 182.961 210.031 183.781C209.211 184.602 208.75 185.715 208.75 186.875ZM226.25 186.875C226.25 188.035 226.711 189.148 227.531 189.969C228.352 190.789 229.465 191.25 230.625 191.25C231.785 191.25 232.898 190.789 233.719 189.969C234.539 189.148 235 188.035 235 186.875C235 185.715 234.539 184.602 233.719 183.781C232.898 182.961 231.785 182.5 230.625 182.5C229.465 182.5 228.352 182.961 227.531 183.781C226.711 184.602 226.25 185.715 226.25 186.875ZM213.125 68.75C211.965 68.75 210.852 69.2109 210.031 70.0314C209.211 70.8519 208.75 71.9647 208.75 73.125C208.75 74.2853 209.211 75.3981 210.031 76.2186C210.852 77.0391 211.965 77.5 213.125 77.5H256.875C258.035 77.5 259.148 77.0391 259.969 76.2186C260.789 75.3981 261.25 74.2853 261.25 73.125C261.25 71.9647 260.789 70.8519 259.969 70.0314C259.148 69.2109 258.035 68.75 256.875 68.75H213.125ZM208.75 90.625C208.75 91.7853 209.211 92.8981 210.031 93.7186C210.852 94.5391 211.965 95 213.125 95H256.875C258.035 95 259.148 94.5391 259.969 93.7186C260.789 92.8981 261.25 91.7853 261.25 90.625C261.25 89.4647 260.789 88.3519 259.969 87.5314C259.148 86.7109 258.035 86.25 256.875 86.25H213.125C211.965 86.25 210.852 86.7109 210.031 87.5314C209.211 88.3519 208.75 89.4647 208.75 90.625ZM143.125 77.5C139.644 77.5 136.306 78.8828 133.844 81.3442C131.383 83.8056 130 87.144 130 90.625V151.875C130 155.356 131.383 158.694 133.844 161.156C136.306 163.617 139.644 165 143.125 165H182.5V182.5H178.125C176.965 182.5 175.852 182.961 175.031 183.781C174.211 184.602 173.75 185.715 173.75 186.875C173.75 188.035 174.211 189.148 175.031 189.969C175.852 190.789 176.965 191.25 178.125 191.25H191.25V156.25H143.125C141.965 156.25 140.852 155.789 140.031 154.969C139.211 154.148 138.75 153.035 138.75 151.875V90.625C138.75 89.4647 139.211 88.3519 140.031 87.5314C140.852 86.7109 141.965 86.25 143.125 86.25H191.25V77.5H143.125Z" fill="white"/>
</svg>
