<svg width="294" height="254" viewBox="0 0 294 254" fill="none" xmlns="http://www.w3.org/2000/svg">
<g filter="url(#filter0_d_2_2)">
<rect x="7" y="7" width="280" height="240" rx="3" fill="#1D1D1B"/>
</g>
<path d="M147 55.25C147 53.5924 147.658 52.0027 148.831 50.8306C150.003 49.6585 151.592 49 153.25 49H190.75C192.408 49 193.997 49.6585 195.169 50.8306C196.342 52.0027 197 53.5924 197 55.25V142.75C197 144.408 196.342 145.997 195.169 147.169C193.997 148.342 192.408 149 190.75 149H153.25C151.592 149 150.003 148.342 148.831 147.169C147.658 145.997 147 144.408 147 142.75V55.25ZM153.25 139.625C153.25 140.454 153.579 141.249 154.165 141.835C154.751 142.421 155.546 142.75 156.375 142.75C157.204 142.75 157.999 142.421 158.585 141.835C159.171 141.249 159.5 140.454 159.5 139.625C159.5 138.796 159.171 138.001 158.585 137.415C157.999 136.829 157.204 136.5 156.375 136.5C155.546 136.5 154.751 136.829 154.165 137.415C153.579 138.001 153.25 138.796 153.25 139.625ZM165.75 139.625C165.75 140.454 166.079 141.249 166.665 141.835C167.251 142.421 168.046 142.75 168.875 142.75C169.704 142.75 170.499 142.421 171.085 141.835C171.671 141.249 172 140.454 172 139.625C172 138.796 171.671 138.001 171.085 137.415C170.499 136.829 169.704 136.5 168.875 136.5C168.046 136.5 167.251 136.829 166.665 137.415C166.079 138.001 165.75 138.796 165.75 139.625ZM156.375 55.25C155.546 55.25 154.751 55.5792 154.165 56.1653C153.579 56.7513 153.25 57.5462 153.25 58.375C153.25 59.2038 153.579 59.9987 154.165 60.5847C154.751 61.1708 155.546 61.5 156.375 61.5H187.625C188.454 61.5 189.249 61.1708 189.835 60.5847C190.421 59.9987 190.75 59.2038 190.75 58.375C190.75 57.5462 190.421 56.7513 189.835 56.1653C189.249 55.5792 188.454 55.25 187.625 55.25H156.375ZM153.25 70.875C153.25 71.7038 153.579 72.4987 154.165 73.0847C154.751 73.6708 155.546 74 156.375 74H187.625C188.454 74 189.249 73.6708 189.835 73.0847C190.421 72.4987 190.75 71.7038 190.75 70.875C190.75 70.0462 190.421 69.2513 189.835 68.6653C189.249 68.0792 188.454 67.75 187.625 67.75H156.375C155.546 67.75 154.751 68.0792 154.165 68.6653C153.579 69.2513 153.25 70.0462 153.25 70.875ZM106.375 61.5C103.889 61.5 101.504 62.4877 99.7459 64.2459C97.9877 66.004 97 68.3886 97 70.875V114.625C97 117.111 97.9877 119.496 99.7459 121.254C101.504 123.012 103.889 124 106.375 124H134.5V136.5H131.375C130.546 136.5 129.751 136.829 129.165 137.415C128.579 138.001 128.25 138.796 128.25 139.625C128.25 140.454 128.579 141.249 129.165 141.835C129.751 142.421 130.546 142.75 131.375 142.75H140.75V117.75H106.375C105.546 117.75 104.751 117.421 104.165 116.835C103.579 116.249 103.25 115.454 103.25 114.625V70.875C103.25 70.0462 103.579 69.2513 104.165 68.6653C104.751 68.0792 105.546 67.75 106.375 67.75H140.75V61.5H106.375Z" fill="#D9D9D9"/>
<path d="M22.6891 204L28.9291 190H32.1291L38.3891 204H34.9891L29.8691 191.64H31.1491L26.0091 204H22.6891ZM25.8091 201L26.6691 198.54H33.8691L34.7491 201H25.8091ZM44.144 204.16C43.1307 204.16 42.2173 203.933 41.404 203.48C40.5907 203.013 39.944 202.367 39.464 201.54C38.9973 200.713 38.764 199.74 38.764 198.62C38.764 197.487 38.9973 196.507 39.464 195.68C39.944 194.853 40.5907 194.213 41.404 193.76C42.2173 193.307 43.1307 193.08 44.144 193.08C45.0507 193.08 45.844 193.28 46.524 193.68C47.204 194.08 47.7307 194.687 48.104 195.5C48.4773 196.313 48.664 197.353 48.664 198.62C48.664 199.873 48.484 200.913 48.124 201.74C47.764 202.553 47.244 203.16 46.564 203.56C45.8973 203.96 45.0907 204.16 44.144 204.16ZM44.684 201.6C45.1907 201.6 45.6507 201.48 46.064 201.24C46.4773 201 46.804 200.66 47.044 200.22C47.2973 199.767 47.424 199.233 47.424 198.62C47.424 197.993 47.2973 197.46 47.044 197.02C46.804 196.58 46.4773 196.24 46.064 196C45.6507 195.76 45.1907 195.64 44.684 195.64C44.164 195.64 43.6973 195.76 43.284 196C42.8707 196.24 42.5373 196.58 42.284 197.02C42.044 197.46 41.924 197.993 41.924 198.62C41.924 199.233 42.044 199.767 42.284 200.22C42.5373 200.66 42.8707 201 43.284 201.24C43.6973 201.48 44.164 201.6 44.684 201.6ZM47.504 204V201.8L47.564 198.6L47.364 195.42V189.16H50.484V204H47.504ZM53.3716 204V193.24H56.4916V204H53.3716ZM54.9316 191.74C54.3583 191.74 53.8916 191.573 53.5316 191.24C53.1716 190.907 52.9916 190.493 52.9916 190C52.9916 189.507 53.1716 189.093 53.5316 188.76C53.8916 188.427 54.3583 188.26 54.9316 188.26C55.505 188.26 55.9716 188.42 56.3316 188.74C56.6916 189.047 56.8716 189.447 56.8716 189.94C56.8716 190.46 56.6916 190.893 56.3316 191.24C55.985 191.573 55.5183 191.74 54.9316 191.74ZM64.5873 204.16C63.4273 204.16 62.3939 203.927 61.4873 203.46C60.5806 202.98 59.8673 202.32 59.3473 201.48C58.8406 200.64 58.5873 199.687 58.5873 198.62C58.5873 197.54 58.8406 196.587 59.3473 195.76C59.8673 194.92 60.5806 194.267 61.4873 193.8C62.3939 193.32 63.4273 193.08 64.5873 193.08C65.7206 193.08 66.7073 193.32 67.5473 193.8C68.3873 194.267 69.0073 194.94 69.4073 195.82L66.9873 197.12C66.7073 196.613 66.3539 196.24 65.9273 196C65.5139 195.76 65.0606 195.64 64.5673 195.64C64.0339 195.64 63.5539 195.76 63.1273 196C62.7006 196.24 62.3606 196.58 62.1073 197.02C61.8673 197.46 61.7473 197.993 61.7473 198.62C61.7473 199.247 61.8673 199.78 62.1073 200.22C62.3606 200.66 62.7006 201 63.1273 201.24C63.5539 201.48 64.0339 201.6 64.5673 201.6C65.0606 201.6 65.5139 201.487 65.9273 201.26C66.3539 201.02 66.7073 200.64 66.9873 200.12L69.4073 201.44C69.0073 202.307 68.3873 202.98 67.5473 203.46C66.7073 203.927 65.7206 204.16 64.5873 204.16ZM71.1451 204V193.24H74.2651V204H71.1451ZM72.7051 191.74C72.1317 191.74 71.6651 191.573 71.3051 191.24C70.9451 190.907 70.7651 190.493 70.7651 190C70.7651 189.507 70.9451 189.093 71.3051 188.76C71.6651 188.427 72.1317 188.26 72.7051 188.26C73.2784 188.26 73.7451 188.42 74.1051 188.74C74.4651 189.047 74.6451 189.447 74.6451 189.94C74.6451 190.46 74.4651 190.893 74.1051 191.24C73.7584 191.573 73.2917 191.74 72.7051 191.74ZM82.2807 204.16C81.134 204.16 80.114 203.92 79.2207 203.44C78.3407 202.96 77.6407 202.307 77.1207 201.48C76.614 200.64 76.3607 199.687 76.3607 198.62C76.3607 197.54 76.614 196.587 77.1207 195.76C77.6407 194.92 78.3407 194.267 79.2207 193.8C80.114 193.32 81.134 193.08 82.2807 193.08C83.414 193.08 84.4274 193.32 85.3207 193.8C86.214 194.267 86.914 194.913 87.4207 195.74C87.9274 196.567 88.1807 197.527 88.1807 198.62C88.1807 199.687 87.9274 200.64 87.4207 201.48C86.914 202.307 86.214 202.96 85.3207 203.44C84.4274 203.92 83.414 204.16 82.2807 204.16ZM82.2807 201.6C82.8007 201.6 83.2674 201.48 83.6807 201.24C84.094 201 84.4207 200.66 84.6607 200.22C84.9007 199.767 85.0207 199.233 85.0207 198.62C85.0207 197.993 84.9007 197.46 84.6607 197.02C84.4207 196.58 84.094 196.24 83.6807 196C83.2674 195.76 82.8007 195.64 82.2807 195.64C81.7607 195.64 81.294 195.76 80.8807 196C80.4674 196.24 80.134 196.58 79.8807 197.02C79.6407 197.46 79.5207 197.993 79.5207 198.62C79.5207 199.233 79.6407 199.767 79.8807 200.22C80.134 200.66 80.4674 201 80.8807 201.24C81.294 201.48 81.7607 201.6 82.2807 201.6ZM96.8062 193.08C97.6595 193.08 98.4195 193.253 99.0862 193.6C99.7662 193.933 100.3 194.453 100.686 195.16C101.073 195.853 101.266 196.747 101.266 197.84V204H98.1462V198.32C98.1462 197.453 97.9528 196.813 97.5662 196.4C97.1928 195.987 96.6595 195.78 95.9662 195.78C95.4728 195.78 95.0262 195.887 94.6262 196.1C94.2395 196.3 93.9328 196.613 93.7062 197.04C93.4928 197.467 93.3862 198.013 93.3862 198.68V204H90.2662V193.24H93.2462V196.22L92.6862 195.32C93.0728 194.6 93.6262 194.047 94.3462 193.66C95.0662 193.273 95.8862 193.08 96.8062 193.08ZM110.694 204V201.9L110.494 201.44V197.68C110.494 197.013 110.288 196.493 109.874 196.12C109.474 195.747 108.854 195.56 108.014 195.56C107.441 195.56 106.874 195.653 106.314 195.84C105.768 196.013 105.301 196.253 104.914 196.56L103.794 194.38C104.381 193.967 105.088 193.647 105.914 193.42C106.741 193.193 107.581 193.08 108.434 193.08C110.074 193.08 111.348 193.467 112.254 194.24C113.161 195.013 113.614 196.22 113.614 197.86V204H110.694ZM107.414 204.16C106.574 204.16 105.854 204.02 105.254 203.74C104.654 203.447 104.194 203.053 103.874 202.56C103.554 202.067 103.394 201.513 103.394 200.9C103.394 200.26 103.548 199.7 103.854 199.22C104.174 198.74 104.674 198.367 105.354 198.1C106.034 197.82 106.921 197.68 108.014 197.68H110.874V199.5H108.354C107.621 199.5 107.114 199.62 106.834 199.86C106.568 200.1 106.434 200.4 106.434 200.76C106.434 201.16 106.588 201.48 106.894 201.72C107.214 201.947 107.648 202.06 108.194 202.06C108.714 202.06 109.181 201.94 109.594 201.7C110.008 201.447 110.308 201.08 110.494 200.6L110.974 202.04C110.748 202.733 110.334 203.26 109.734 203.62C109.134 203.98 108.361 204.16 107.414 204.16ZM116.438 204V193.24H119.418V196.28L118.998 195.4C119.318 194.64 119.831 194.067 120.538 193.68C121.245 193.28 122.105 193.08 123.118 193.08V195.96C122.985 195.947 122.865 195.94 122.758 195.94C122.651 195.927 122.538 195.92 122.418 195.92C121.565 195.92 120.871 196.167 120.338 196.66C119.818 197.14 119.558 197.893 119.558 198.92V204H116.438ZM133.915 195.64H140.655V198.16H133.915V195.64ZM134.155 201.4H141.775V204H130.935V190H141.515V192.6H134.155V201.4ZM148.655 204.16C147.641 204.16 146.728 203.933 145.915 203.48C145.101 203.027 144.455 202.387 143.975 201.56C143.508 200.733 143.275 199.753 143.275 198.62C143.275 197.5 143.508 196.527 143.975 195.7C144.455 194.873 145.101 194.233 145.915 193.78C146.728 193.313 147.641 193.08 148.655 193.08C149.601 193.08 150.408 193.28 151.075 193.68C151.755 194.08 152.275 194.687 152.635 195.5C152.995 196.313 153.175 197.353 153.175 198.62C153.175 199.873 152.988 200.913 152.615 201.74C152.241 202.553 151.715 203.16 151.035 203.56C150.355 203.96 149.561 204.16 148.655 204.16ZM149.195 201.6C149.701 201.6 150.161 201.48 150.575 201.24C150.988 201 151.315 200.66 151.555 200.22C151.808 199.767 151.935 199.233 151.935 198.62C151.935 197.993 151.808 197.46 151.555 197.02C151.315 196.58 150.988 196.24 150.575 196C150.161 195.76 149.701 195.64 149.195 195.64C148.675 195.64 148.208 195.76 147.795 196C147.381 196.24 147.048 196.58 146.795 197.02C146.555 197.46 146.435 197.993 146.435 198.62C146.435 199.233 146.555 199.767 146.795 200.22C147.048 200.66 147.381 201 147.795 201.24C148.208 201.48 148.675 201.6 149.195 201.6ZM151.875 207.88V201.82L152.075 198.64L152.015 195.44V193.24H154.995V207.88H151.875ZM162.423 204.16C161.53 204.16 160.73 203.987 160.023 203.64C159.33 203.293 158.79 202.767 158.403 202.06C158.017 201.34 157.823 200.427 157.823 199.32V193.24H160.943V198.86C160.943 199.753 161.13 200.413 161.503 200.84C161.89 201.253 162.43 201.46 163.123 201.46C163.603 201.46 164.03 201.36 164.403 201.16C164.777 200.947 165.07 200.627 165.283 200.2C165.497 199.76 165.603 199.213 165.603 198.56V193.24H168.723V204H165.763V201.04L166.303 201.9C165.943 202.647 165.41 203.213 164.703 203.6C164.01 203.973 163.25 204.16 162.423 204.16ZM171.614 204V193.24H174.734V204H171.614ZM173.174 191.74C172.6 191.74 172.134 191.573 171.774 191.24C171.414 190.907 171.234 190.493 171.234 190C171.234 189.507 171.414 189.093 171.774 188.76C172.134 188.427 172.6 188.26 173.174 188.26C173.747 188.26 174.214 188.42 174.574 188.74C174.934 189.047 175.114 189.447 175.114 189.94C175.114 190.46 174.934 190.893 174.574 191.24C174.227 191.573 173.76 191.74 173.174 191.74ZM183.989 204.16C183.083 204.16 182.289 203.96 181.609 203.56C180.929 203.16 180.396 202.553 180.009 201.74C179.636 200.913 179.449 199.873 179.449 198.62C179.449 197.353 179.629 196.313 179.989 195.5C180.349 194.687 180.869 194.08 181.549 193.68C182.229 193.28 183.043 193.08 183.989 193.08C185.003 193.08 185.909 193.313 186.709 193.78C187.523 194.233 188.163 194.873 188.629 195.7C189.109 196.527 189.349 197.5 189.349 198.62C189.349 199.753 189.109 200.733 188.629 201.56C188.163 202.387 187.523 203.027 186.709 203.48C185.909 203.933 185.003 204.16 183.989 204.16ZM177.629 207.88V193.24H180.609V195.44L180.549 198.64L180.749 201.82V207.88H177.629ZM183.449 201.6C183.969 201.6 184.429 201.48 184.829 201.24C185.243 201 185.569 200.66 185.809 200.22C186.063 199.767 186.189 199.233 186.189 198.62C186.189 197.993 186.063 197.46 185.809 197.02C185.569 196.58 185.243 196.24 184.829 196C184.429 195.76 183.969 195.64 183.449 195.64C182.929 195.64 182.463 195.76 182.049 196C181.636 196.24 181.309 196.58 181.069 197.02C180.829 197.46 180.709 197.993 180.709 198.62C180.709 199.233 180.829 199.767 181.069 200.22C181.309 200.66 181.636 201 182.049 201.24C182.463 201.48 182.929 201.6 183.449 201.6ZM197.862 204V201.9L197.662 201.44V197.68C197.662 197.013 197.456 196.493 197.042 196.12C196.642 195.747 196.022 195.56 195.182 195.56C194.609 195.56 194.042 195.653 193.482 195.84C192.936 196.013 192.469 196.253 192.082 196.56L190.962 194.38C191.549 193.967 192.256 193.647 193.082 193.42C193.909 193.193 194.749 193.08 195.602 193.08C197.242 193.08 198.516 193.467 199.422 194.24C200.329 195.013 200.782 196.22 200.782 197.86V204H197.862ZM194.582 204.16C193.742 204.16 193.022 204.02 192.422 203.74C191.822 203.447 191.362 203.053 191.042 202.56C190.722 202.067 190.562 201.513 190.562 200.9C190.562 200.26 190.716 199.7 191.022 199.22C191.342 198.74 191.842 198.367 192.522 198.1C193.202 197.82 194.089 197.68 195.182 197.68H198.042V199.5H195.522C194.789 199.5 194.282 199.62 194.002 199.86C193.736 200.1 193.602 200.4 193.602 200.76C193.602 201.16 193.756 201.48 194.062 201.72C194.382 201.947 194.816 202.06 195.362 202.06C195.882 202.06 196.349 201.94 196.762 201.7C197.176 201.447 197.476 201.08 197.662 200.6L198.142 202.04C197.916 202.733 197.502 203.26 196.902 203.62C196.302 203.98 195.529 204.16 194.582 204.16ZM217.386 193.08C218.239 193.08 218.993 193.253 219.646 193.6C220.313 193.933 220.833 194.453 221.206 195.16C221.593 195.853 221.786 196.747 221.786 197.84V204H218.666V198.32C218.666 197.453 218.486 196.813 218.126 196.4C217.766 195.987 217.259 195.78 216.606 195.78C216.153 195.78 215.746 195.887 215.386 196.1C215.026 196.3 214.746 196.607 214.546 197.02C214.346 197.433 214.246 197.96 214.246 198.6V204H211.126V198.32C211.126 197.453 210.946 196.813 210.586 196.4C210.239 195.987 209.739 195.78 209.086 195.78C208.633 195.78 208.226 195.887 207.866 196.1C207.506 196.3 207.226 196.607 207.026 197.02C206.826 197.433 206.726 197.96 206.726 198.6V204H203.606V193.24H206.586V196.18L206.026 195.32C206.399 194.587 206.926 194.033 207.606 193.66C208.299 193.273 209.086 193.08 209.966 193.08C210.953 193.08 211.813 193.333 212.546 193.84C213.293 194.333 213.786 195.093 214.026 196.12L212.926 195.82C213.286 194.98 213.859 194.313 214.646 193.82C215.446 193.327 216.359 193.08 217.386 193.08ZM230.001 204.16C228.774 204.16 227.694 203.92 226.761 203.44C225.841 202.96 225.127 202.307 224.621 201.48C224.114 200.64 223.861 199.687 223.861 198.62C223.861 197.54 224.107 196.587 224.601 195.76C225.107 194.92 225.794 194.267 226.661 193.8C227.527 193.32 228.507 193.08 229.601 193.08C230.654 193.08 231.601 193.307 232.441 193.76C233.294 194.2 233.967 194.84 234.461 195.68C234.954 196.507 235.201 197.5 235.201 198.66C235.201 198.78 235.194 198.92 235.181 199.08C235.167 199.227 235.154 199.367 235.141 199.5H226.401V197.68H233.501L232.301 198.22C232.301 197.66 232.187 197.173 231.961 196.76C231.734 196.347 231.421 196.027 231.021 195.8C230.621 195.56 230.154 195.44 229.621 195.44C229.087 195.44 228.614 195.56 228.201 195.8C227.801 196.027 227.487 196.353 227.261 196.78C227.034 197.193 226.921 197.687 226.921 198.26V198.74C226.921 199.327 227.047 199.847 227.301 200.3C227.567 200.74 227.934 201.08 228.401 201.32C228.881 201.547 229.441 201.66 230.081 201.66C230.654 201.66 231.154 201.573 231.581 201.4C232.021 201.227 232.421 200.967 232.781 200.62L234.441 202.42C233.947 202.98 233.327 203.413 232.581 203.72C231.834 204.013 230.974 204.16 230.001 204.16ZM243.818 193.08C244.671 193.08 245.431 193.253 246.098 193.6C246.778 193.933 247.311 194.453 247.698 195.16C248.085 195.853 248.278 196.747 248.278 197.84V204H245.158V198.32C245.158 197.453 244.965 196.813 244.578 196.4C244.205 195.987 243.671 195.78 242.978 195.78C242.485 195.78 242.038 195.887 241.638 196.1C241.251 196.3 240.945 196.613 240.718 197.04C240.505 197.467 240.398 198.013 240.398 198.68V204H237.278V193.24H240.258V196.22L239.698 195.32C240.085 194.6 240.638 194.047 241.358 193.66C242.078 193.273 242.898 193.08 243.818 193.08ZM255.506 204.16C254.239 204.16 253.253 203.84 252.546 203.2C251.839 202.547 251.486 201.58 251.486 200.3V190.86H254.606V200.26C254.606 200.713 254.726 201.067 254.966 201.32C255.206 201.56 255.533 201.68 255.946 201.68C256.439 201.68 256.859 201.547 257.206 201.28L258.046 203.48C257.726 203.707 257.339 203.88 256.886 204C256.446 204.107 255.986 204.16 255.506 204.16ZM249.826 195.88V193.48H257.286V195.88H249.826ZM264.585 204.16C263.439 204.16 262.419 203.92 261.525 203.44C260.645 202.96 259.945 202.307 259.425 201.48C258.919 200.64 258.665 199.687 258.665 198.62C258.665 197.54 258.919 196.587 259.425 195.76C259.945 194.92 260.645 194.267 261.525 193.8C262.419 193.32 263.439 193.08 264.585 193.08C265.719 193.08 266.732 193.32 267.625 193.8C268.519 194.267 269.219 194.913 269.725 195.74C270.232 196.567 270.485 197.527 270.485 198.62C270.485 199.687 270.232 200.64 269.725 201.48C269.219 202.307 268.519 202.96 267.625 203.44C266.732 203.92 265.719 204.16 264.585 204.16ZM264.585 201.6C265.105 201.6 265.572 201.48 265.985 201.24C266.399 201 266.725 200.66 266.965 200.22C267.205 199.767 267.325 199.233 267.325 198.62C267.325 197.993 267.205 197.46 266.965 197.02C266.725 196.58 266.399 196.24 265.985 196C265.572 195.76 265.105 195.64 264.585 195.64C264.065 195.64 263.599 195.76 263.185 196C262.772 196.24 262.439 196.58 262.185 197.02C261.945 197.46 261.825 197.993 261.825 198.62C261.825 199.233 261.945 199.767 262.185 200.22C262.439 200.66 262.772 201 263.185 201.24C263.599 201.48 264.065 201.6 264.585 201.6Z" fill="#D9D9D9"/>
<defs>
<filter id="filter0_d_2_2" x="0" y="0" width="294" height="254" filterUnits="userSpaceOnUse" color-interpolation-filters="sRGB">
<feFlood flood-opacity="0" result="BackgroundImageFix"/>
<feColorMatrix in="SourceAlpha" type="matrix" values="0 0 0 0 0 0 0 0 0 0 0 0 0 0 0 0 0 0 127 0" result="hardAlpha"/>
<feMorphology radius="3" operator="dilate" in="SourceAlpha" result="effect1_dropShadow_2_2"/>
<feOffset/>
<feGaussianBlur stdDeviation="2"/>
<feComposite in2="hardAlpha" operator="out"/>
<feColorMatrix type="matrix" values="0 0 0 0 0.898039 0 0 0 0 0.898039 0 0 0 0 0.898039 0 0 0 0.2 0"/>
<feBlend mode="normal" in2="BackgroundImageFix" result="effect1_dropShadow_2_2"/>
<feBlend mode="normal" in="SourceGraphic" in2="effect1_dropShadow_2_2" result="shape"/>
</filter>
</defs>
</svg>
