<svg width="400" height="400" viewBox="0 0 400 400" fill="none" xmlns="http://www.w3.org/2000/svg">
<circle cx="200" cy="200" r="200" fill="#666666"/>
<path d="M200 68.75C200 66.4294 200.922 64.2038 202.563 62.5628C204.204 60.9219 206.429 60 208.75 60H261.25C263.571 60 265.796 60.9219 267.437 62.5628C269.078 64.2038 270 66.4294 270 68.75V191.25C270 193.571 269.078 195.796 267.437 197.437C265.796 199.078 263.571 200 261.25 200H208.75C206.429 200 204.204 199.078 202.563 197.437C200.922 195.796 200 193.571 200 191.25V68.75ZM208.75 186.875C208.75 188.035 209.211 189.148 210.031 189.969C210.852 190.789 211.965 191.25 213.125 191.25C214.285 191.25 215.398 190.789 216.219 189.969C217.039 189.148 217.5 188.035 217.5 186.875C217.5 185.715 217.039 184.602 216.219 183.781C215.398 182.961 214.285 182.5 213.125 182.5C211.965 182.5 210.852 182.961 210.031 183.781C209.211 184.602 208.75 185.715 208.75 186.875ZM226.25 186.875C226.25 188.035 226.711 189.148 227.531 189.969C228.352 190.789 229.465 191.25 230.625 191.25C231.785 191.25 232.898 190.789 233.719 189.969C234.539 189.148 235 188.035 235 186.875C235 185.715 234.539 184.602 233.719 183.781C232.898 182.961 231.785 182.5 230.625 182.5C229.465 182.5 228.352 182.961 227.531 183.781C226.711 184.602 226.25 185.715 226.25 186.875ZM213.125 68.75C211.965 68.75 210.852 69.2109 210.031 70.0314C209.211 70.8519 208.75 71.9647 208.75 73.125C208.75 74.2853 209.211 75.3981 210.031 76.2186C210.852 77.0391 211.965 77.5 213.125 77.5H256.875C258.035 77.5 259.148 77.0391 259.969 76.2186C260.789 75.3981 261.25 74.2853 261.25 73.125C261.25 71.9647 260.789 70.8519 259.969 70.0314C259.148 69.2109 258.035 68.75 256.875 68.75H213.125ZM208.75 90.625C208.75 91.7853 209.211 92.8981 210.031 93.7186C210.852 94.5391 211.965 95 213.125 95H256.875C258.035 95 259.148 94.5391 259.969 93.7186C260.789 92.8981 261.25 91.7853 261.25 90.625C261.25 89.4647 260.789 88.3519 259.969 87.5314C259.148 86.7109 258.035 86.25 256.875 86.25H213.125C211.965 86.25 210.852 86.7109 210.031 87.5314C209.211 88.3519 208.75 89.4647 208.75 90.625ZM143.125 77.5C139.644 77.5 136.306 78.8828 133.844 81.3442C131.383 83.8056 130 87.144 130 90.625V151.875C130 155.356 131.383 158.694 133.844 161.156C136.306 163.617 139.644 165 143.125 165H182.5V182.5H178.125C176.965 182.5 175.852 182.961 175.031 183.781C174.211 184.602 173.75 185.715 173.75 186.875C173.75 188.035 174.211 189.148 175.031 189.969C175.852 190.789 176.965 191.25 178.125 191.25H191.25V156.25H143.125C141.965 156.25 140.852 155.789 140.031 154.969C139.211 154.148 138.75 153.035 138.75 151.875V90.625C138.75 89.4647 139.211 88.3519 140.031 87.5314C140.852 86.7109 141.965 86.25 143.125 86.25H191.25V77.5H143.125Z" fill="white"/>
<path d="M123.642 272L133.882 249.6H136.218L146.458 272H143.962L134.554 250.976H135.514L126.106 272H123.642ZM127.674 266.016L128.378 264.096H141.402L142.106 266.016H127.674ZM156.215 272.16C154.615 272.16 153.175 271.797 151.895 271.072C150.637 270.347 149.645 269.344 148.919 268.064C148.194 266.763 147.831 265.269 147.831 263.584C147.831 261.877 148.194 260.384 148.919 259.104C149.645 257.824 150.637 256.832 151.895 256.128C153.175 255.403 154.615 255.04 156.215 255.04C157.687 255.04 158.999 255.371 160.151 256.032C161.325 256.693 162.253 257.664 162.935 258.944C163.639 260.203 163.991 261.749 163.991 263.584C163.991 265.397 163.65 266.944 162.967 268.224C162.285 269.504 161.357 270.485 160.183 271.168C159.031 271.829 157.709 272.16 156.215 272.16ZM156.375 270.144C157.57 270.144 158.637 269.877 159.575 269.344C160.535 268.789 161.282 268.021 161.815 267.04C162.37 266.037 162.647 264.885 162.647 263.584C162.647 262.261 162.37 261.109 161.815 260.128C161.282 259.147 160.535 258.389 159.575 257.856C158.637 257.301 157.57 257.024 156.375 257.024C155.202 257.024 154.146 257.301 153.207 257.856C152.269 258.389 151.522 259.147 150.967 260.128C150.413 261.109 150.135 262.261 150.135 263.584C150.135 264.885 150.413 266.037 150.967 267.04C151.522 268.021 152.269 268.789 153.207 269.344C154.146 269.877 155.202 270.144 156.375 270.144ZM162.711 272V266.944L162.935 263.552L162.615 260.16V248.256H164.887V272H162.711ZM171.215 272V255.2H173.487V272H171.215ZM172.367 251.488C171.898 251.488 171.503 251.328 171.183 251.008C170.863 250.688 170.703 250.304 170.703 249.856C170.703 249.408 170.863 249.035 171.183 248.736C171.503 248.416 171.898 248.256 172.367 248.256C172.836 248.256 173.231 248.405 173.551 248.704C173.871 249.003 174.031 249.376 174.031 249.824C174.031 250.293 173.871 250.688 173.551 251.008C173.252 251.328 172.858 251.488 172.367 251.488ZM186.785 272.16C185.121 272.16 183.627 271.797 182.305 271.072C181.003 270.325 179.979 269.312 179.233 268.032C178.486 266.731 178.113 265.248 178.113 263.584C178.113 261.899 178.486 260.416 179.233 259.136C179.979 257.856 181.003 256.853 182.305 256.128C183.627 255.403 185.121 255.04 186.785 255.04C188.214 255.04 189.505 255.317 190.657 255.872C191.809 256.427 192.715 257.259 193.377 258.368L191.681 259.52C191.105 258.667 190.39 258.037 189.537 257.632C188.683 257.227 187.755 257.024 186.753 257.024C185.558 257.024 184.481 257.301 183.521 257.856C182.561 258.389 181.803 259.147 181.249 260.128C180.694 261.109 180.417 262.261 180.417 263.584C180.417 264.907 180.694 266.059 181.249 267.04C181.803 268.021 182.561 268.789 183.521 269.344C184.481 269.877 185.558 270.144 186.753 270.144C187.755 270.144 188.683 269.941 189.537 269.536C190.39 269.131 191.105 268.512 191.681 267.68L193.377 268.832C192.715 269.92 191.809 270.752 190.657 271.328C189.505 271.883 188.214 272.16 186.785 272.16ZM197.59 272V255.2H199.862V272H197.59ZM198.742 251.488C198.273 251.488 197.878 251.328 197.558 251.008C197.238 250.688 197.078 250.304 197.078 249.856C197.078 249.408 197.238 249.035 197.558 248.736C197.878 248.416 198.273 248.256 198.742 248.256C199.211 248.256 199.606 248.405 199.926 248.704C200.246 249.003 200.406 249.376 200.406 249.824C200.406 250.293 200.246 250.688 199.926 251.008C199.627 251.328 199.233 251.488 198.742 251.488ZM213.032 272.16C211.41 272.16 209.949 271.797 208.648 271.072C207.368 270.325 206.354 269.312 205.608 268.032C204.861 266.731 204.488 265.248 204.488 263.584C204.488 261.899 204.861 260.416 205.608 259.136C206.354 257.856 207.368 256.853 208.648 256.128C209.928 255.403 211.389 255.04 213.032 255.04C214.696 255.04 216.168 255.403 217.448 256.128C218.749 256.853 219.762 257.856 220.488 259.136C221.234 260.416 221.608 261.899 221.608 263.584C221.608 265.248 221.234 266.731 220.488 268.032C219.762 269.312 218.749 270.325 217.448 271.072C216.146 271.797 214.674 272.16 213.032 272.16ZM213.032 270.144C214.248 270.144 215.325 269.877 216.264 269.344C217.202 268.789 217.938 268.021 218.472 267.04C219.026 266.037 219.304 264.885 219.304 263.584C219.304 262.261 219.026 261.109 218.472 260.128C217.938 259.147 217.202 258.389 216.264 257.856C215.325 257.301 214.258 257.024 213.064 257.024C211.869 257.024 210.802 257.301 209.864 257.856C208.925 258.389 208.178 259.147 207.624 260.128C207.069 261.109 206.792 262.261 206.792 263.584C206.792 264.885 207.069 266.037 207.624 267.04C208.178 268.021 208.925 268.789 209.864 269.344C210.802 269.877 211.858 270.144 213.032 270.144ZM234.822 255.04C236.187 255.04 237.382 255.307 238.406 255.84C239.451 256.352 240.262 257.141 240.838 258.208C241.435 259.275 241.734 260.619 241.734 262.24V272H239.462V262.464C239.462 260.693 239.014 259.36 238.118 258.464C237.243 257.547 236.006 257.088 234.406 257.088C233.211 257.088 232.166 257.333 231.27 257.824C230.395 258.293 229.713 258.987 229.222 259.904C228.753 260.8 228.518 261.888 228.518 263.168V272H226.246V255.2H228.422V259.808L228.07 258.944C228.603 257.728 229.457 256.779 230.63 256.096C231.803 255.392 233.201 255.04 234.822 255.04ZM258.399 272V268.288L258.303 267.68V261.472C258.303 260.043 257.898 258.944 257.087 258.176C256.298 257.408 255.114 257.024 253.535 257.024C252.447 257.024 251.412 257.205 250.431 257.568C249.45 257.931 248.618 258.411 247.935 259.008L246.911 257.312C247.764 256.587 248.788 256.032 249.983 255.648C251.178 255.243 252.436 255.04 253.759 255.04C255.935 255.04 257.61 255.584 258.783 256.672C259.978 257.739 260.575 259.371 260.575 261.568V272H258.399ZM252.607 272.16C251.348 272.16 250.25 271.957 249.311 271.552C248.394 271.125 247.69 270.549 247.199 269.824C246.708 269.077 246.463 268.224 246.463 267.264C246.463 266.389 246.666 265.6 247.071 264.896C247.498 264.171 248.18 263.595 249.119 263.168C250.079 262.72 251.359 262.496 252.959 262.496H258.751V264.192H253.023C251.402 264.192 250.271 264.48 249.631 265.056C249.012 265.632 248.703 266.347 248.703 267.2C248.703 268.16 249.076 268.928 249.823 269.504C250.57 270.08 251.615 270.368 252.959 270.368C254.239 270.368 255.338 270.08 256.255 269.504C257.194 268.907 257.876 268.053 258.303 266.944L258.815 268.512C258.388 269.621 257.642 270.507 256.575 271.168C255.53 271.829 254.207 272.16 252.607 272.16ZM266.746 272V255.2H268.922V259.776L268.698 258.976C269.167 257.696 269.957 256.725 271.066 256.064C272.175 255.381 273.551 255.04 275.194 255.04V257.248C275.109 257.248 275.023 257.248 274.938 257.248C274.853 257.227 274.767 257.216 274.682 257.216C272.911 257.216 271.525 257.76 270.522 258.848C269.519 259.915 269.018 261.44 269.018 263.424V272H266.746ZM151.375 311.192C148.516 311.192 146.266 310.371 144.623 308.728C142.98 307.085 142.159 304.653 142.159 301.432V288.6H144.527V301.336C144.527 303.981 145.124 305.933 146.319 307.192C147.514 308.451 149.199 309.08 151.375 309.08C153.572 309.08 155.268 308.451 156.463 307.192C157.658 305.933 158.255 303.981 158.255 301.336V288.6H160.559V301.432C160.559 304.653 159.738 307.085 158.095 308.728C156.474 310.371 154.234 311.192 151.375 311.192ZM171.727 311.16C170.34 311.16 169.028 310.968 167.791 310.584C166.554 310.179 165.583 309.677 164.879 309.08L165.903 307.288C166.586 307.8 167.46 308.248 168.527 308.632C169.594 308.995 170.714 309.176 171.887 309.176C173.487 309.176 174.639 308.931 175.343 308.44C176.047 307.928 176.399 307.256 176.399 306.424C176.399 305.805 176.196 305.325 175.791 304.984C175.407 304.621 174.895 304.355 174.255 304.184C173.615 303.992 172.9 303.832 172.111 303.704C171.322 303.576 170.532 303.427 169.743 303.256C168.975 303.085 168.271 302.84 167.631 302.52C166.991 302.179 166.468 301.72 166.063 301.144C165.679 300.568 165.487 299.8 165.487 298.84C165.487 297.923 165.743 297.101 166.255 296.376C166.767 295.651 167.514 295.085 168.495 294.68C169.498 294.253 170.714 294.04 172.143 294.04C173.231 294.04 174.319 294.189 175.407 294.488C176.495 294.765 177.391 295.139 178.095 295.608L177.103 297.432C176.356 296.92 175.556 296.557 174.703 296.344C173.85 296.109 172.996 295.992 172.143 295.992C170.628 295.992 169.508 296.259 168.783 296.792C168.079 297.304 167.727 297.965 167.727 298.776C167.727 299.416 167.919 299.917 168.303 300.28C168.708 300.643 169.231 300.931 169.871 301.144C170.532 301.336 171.247 301.496 172.015 301.624C172.804 301.752 173.583 301.912 174.351 302.104C175.14 302.275 175.855 302.52 176.495 302.84C177.156 303.139 177.679 303.576 178.063 304.152C178.468 304.707 178.671 305.443 178.671 306.36C178.671 307.341 178.394 308.195 177.839 308.92C177.306 309.624 176.516 310.179 175.471 310.584C174.447 310.968 173.199 311.16 171.727 311.16ZM189.784 311.16C188.355 311.16 187.107 310.893 186.04 310.36C184.973 309.827 184.141 309.027 183.544 307.96C182.968 306.893 182.68 305.56 182.68 303.96V294.2H184.952V303.704C184.952 305.496 185.389 306.851 186.264 307.768C187.16 308.664 188.408 309.112 190.008 309.112C191.181 309.112 192.195 308.877 193.048 308.408C193.923 307.917 194.584 307.213 195.032 306.296C195.501 305.379 195.736 304.28 195.736 303V294.2H198.008V311H195.832V306.392L196.184 307.224C195.651 308.461 194.819 309.432 193.688 310.136C192.579 310.819 191.277 311.16 189.784 311.16ZM214.868 311V307.288L214.772 306.68V300.472C214.772 299.043 214.367 297.944 213.556 297.176C212.767 296.408 211.583 296.024 210.004 296.024C208.916 296.024 207.881 296.205 206.9 296.568C205.919 296.931 205.087 297.411 204.404 298.008L203.38 296.312C204.233 295.587 205.257 295.032 206.452 294.648C207.647 294.243 208.905 294.04 210.228 294.04C212.404 294.04 214.079 294.584 215.252 295.672C216.447 296.739 217.044 298.371 217.044 300.568V311H214.868ZM209.076 311.16C207.817 311.16 206.719 310.957 205.78 310.552C204.863 310.125 204.159 309.549 203.668 308.824C203.177 308.077 202.932 307.224 202.932 306.264C202.932 305.389 203.135 304.6 203.54 303.896C203.967 303.171 204.649 302.595 205.588 302.168C206.548 301.72 207.828 301.496 209.428 301.496H215.22V303.192H209.492C207.871 303.192 206.74 303.48 206.1 304.056C205.481 304.632 205.172 305.347 205.172 306.2C205.172 307.16 205.545 307.928 206.292 308.504C207.039 309.08 208.084 309.368 209.428 309.368C210.708 309.368 211.807 309.08 212.724 308.504C213.663 307.907 214.345 307.053 214.772 305.944L215.284 307.512C214.857 308.621 214.111 309.507 213.044 310.168C211.999 310.829 210.676 311.16 209.076 311.16ZM208.212 291.576L212.596 287.608H215.636L210.452 291.576H208.212ZM223.215 311V294.2H225.391V298.776L225.167 297.976C225.636 296.696 226.426 295.725 227.535 295.064C228.644 294.381 230.02 294.04 231.663 294.04V296.248C231.578 296.248 231.492 296.248 231.407 296.248C231.322 296.227 231.236 296.216 231.151 296.216C229.38 296.216 227.994 296.76 226.991 297.848C225.988 298.915 225.487 300.44 225.487 302.424V311H223.215ZM235.809 311V294.2H238.081V311H235.809ZM236.961 290.488C236.491 290.488 236.097 290.328 235.777 290.008C235.457 289.688 235.297 289.304 235.297 288.856C235.297 288.408 235.457 288.035 235.777 287.736C236.097 287.416 236.491 287.256 236.961 287.256C237.43 287.256 237.825 287.405 238.145 287.704C238.465 288.003 238.625 288.376 238.625 288.824C238.625 289.293 238.465 289.688 238.145 290.008C237.846 290.328 237.451 290.488 236.961 290.488ZM251.25 311.16C249.629 311.16 248.168 310.797 246.866 310.072C245.586 309.325 244.573 308.312 243.826 307.032C243.08 305.731 242.706 304.248 242.706 302.584C242.706 300.899 243.08 299.416 243.826 298.136C244.573 296.856 245.586 295.853 246.866 295.128C248.146 294.403 249.608 294.04 251.25 294.04C252.914 294.04 254.386 294.403 255.666 295.128C256.968 295.853 257.981 296.856 258.706 298.136C259.453 299.416 259.826 300.899 259.826 302.584C259.826 304.248 259.453 305.731 258.706 307.032C257.981 308.312 256.968 309.325 255.666 310.072C254.365 310.797 252.893 311.16 251.25 311.16ZM251.25 309.144C252.466 309.144 253.544 308.877 254.482 308.344C255.421 307.789 256.157 307.021 256.69 306.04C257.245 305.037 257.522 303.885 257.522 302.584C257.522 301.261 257.245 300.109 256.69 299.128C256.157 298.147 255.421 297.389 254.482 296.856C253.544 296.301 252.477 296.024 251.282 296.024C250.088 296.024 249.021 296.301 248.082 296.856C247.144 297.389 246.397 298.147 245.842 299.128C245.288 300.109 245.01 301.261 245.01 302.584C245.01 303.885 245.288 305.037 245.842 306.04C246.397 307.021 247.144 307.789 248.082 308.344C249.021 308.877 250.077 309.144 251.25 309.144Z" fill="white"/>
</svg>
