<svg width="344" height="140" viewBox="0 0 344 140" fill="none" xmlns="http://www.w3.org/2000/svg">
<path fill-rule="evenodd" clip-rule="evenodd" d="M67.8618 0.289186C67.6577 0.453086 63.9007 8.28934 59.513 17.7031C53.0126 31.6504 51.5809 34.9034 51.7808 35.2724C52.0004 35.6786 52.3187 35.725 54.8464 35.7219C56.3978 35.7198 57.7965 35.6369 57.9546 35.5373C58.1128 35.438 58.8927 33.9924 59.6883 32.3251L61.1342 29.2934H68.6198H76.1052L76.9952 31.2587C77.4849 32.3398 78.1579 33.7601 78.4909 34.4153L79.0967 35.6064H82.2269C85.2814 35.6064 85.359 35.5935 85.4334 35.0752C85.5015 34.6011 70.6154 1.94367 69.6858 0.527413C69.2981 -0.0633908 68.4409 -0.175358 67.8618 0.289186ZM120.914 0.29871C120.772 0.467851 117.072 8.2667 112.691 17.6298C107.03 29.7274 104.763 34.8086 104.857 35.1895C104.986 35.7093 105.08 35.7255 107.958 35.7255C110.484 35.7255 110.98 35.6636 111.292 35.3086C111.493 35.0794 112.23 33.632 112.93 32.0925L114.201 29.2934H121.722H129.242L130.509 32.0925C131.206 33.632 131.943 35.0823 132.147 35.3155C132.471 35.6869 132.89 35.731 135.54 35.6729C138.246 35.6133 138.573 35.5607 138.648 35.1714C138.749 34.6533 123.133 0.720139 122.596 0.289186C122.114 -0.0972191 121.242 -0.0922216 120.914 0.29871ZM183.109 0.226764C181.11 0.517402 179.13 1.17014 177.095 2.20953C174.636 3.46475 171.209 6.7361 169.902 9.07478C166.673 14.8532 166.634 21.283 169.794 27.2077C170.819 29.1309 174.377 32.6793 176.493 33.8897C179.141 35.4044 181.446 36.0161 184.995 36.1462C188.723 36.2827 190.508 35.9294 193.709 34.4219C197.574 32.6009 200.305 29.8992 202.141 26.0773C203.436 23.3846 203.942 21.1543 203.942 18.1474C203.942 15.1584 203.346 12.7504 201.875 9.79398C200.958 7.95201 200.405 7.20898 198.682 5.50589C197.536 4.37288 195.974 3.08359 195.211 2.6412C191.617 0.555044 187.077 -0.350461 183.109 0.226764ZM247.056 0.216048C246.82 0.363511 246.299 2.71553 245.435 7.53773C240.653 34.1975 240.512 35.0463 240.798 35.3875C241.013 35.6447 241.766 35.7255 243.947 35.7255C246.699 35.7255 246.821 35.7043 247.013 35.1895C247.123 34.8948 247.846 30.4993 248.62 25.4219C249.394 20.3446 250.111 16.2738 250.214 16.3757C250.317 16.4777 252.398 20.9535 254.839 26.322C259.039 35.5614 259.315 36.094 260.014 36.2939C260.555 36.4488 260.897 36.4092 261.301 36.146C261.681 35.8975 262.993 33.2334 265.57 27.4781C270.568 16.3131 270.654 16.127 270.753 16.2254C270.801 16.2726 271.509 20.5454 272.326 25.7207C273.143 30.8957 273.924 35.2641 274.061 35.4277C274.234 35.6355 275.172 35.7255 277.16 35.7255C279.632 35.7255 280.041 35.67 280.23 35.3086C280.537 34.7226 274.445 0.497878 273.982 0.207717C273.495 -0.0972143 272.472 -0.0543382 272.047 0.289186C271.845 0.453086 269.197 5.8668 266.164 12.3197C263.131 18.7725 260.586 24.0524 260.508 24.0524C260.431 24.0524 257.846 18.6996 254.764 12.1572C251.682 5.615 249 0.201278 248.804 0.126713C248.276 -0.073398 247.451 -0.0312317 247.056 0.216048ZM299.589 0.1896C299.422 0.294658 295.662 8.13521 291.233 17.6133C284.795 31.3938 283.229 34.9339 283.42 35.2857C283.63 35.6752 283.98 35.725 286.478 35.7219C288.03 35.7198 289.452 35.6226 289.638 35.5056C289.825 35.3887 290.588 33.9698 291.334 32.3527L292.691 29.4125L300.215 29.3496L307.739 29.2865L308.928 31.851C310.888 36.0776 310.275 35.5962 313.795 35.6729C316.557 35.7334 316.866 35.6981 317.083 35.2979C317.274 34.9441 315.751 31.4605 309.428 17.792C305.087 8.40655 301.396 0.561952 301.226 0.359459C300.895 -0.036237 300.083 -0.120334 299.589 0.1896ZM0.378267 0.842108C0.0414142 1.17563 0 3.07692 0 18.1851C0 31.0653 0.0695851 35.2226 0.288937 35.4396C0.480358 35.629 1.51957 35.7255 3.37094 35.7255C5.22231 35.7255 6.26152 35.629 6.45294 35.4396C6.66242 35.2324 6.74188 33.4967 6.74188 29.1266V23.0995H10.4234C14.2882 23.0995 16.0153 22.8214 17.9871 21.8824C20.6913 20.594 22.9566 17.9228 23.8713 14.9428C24.2898 13.5794 24.3603 12.8762 24.2631 11.0361C24.1583 9.05381 24.0399 8.58284 23.2477 6.99672C22.1642 4.8279 20.4286 3.035 18.3577 1.94535C15.9472 0.677026 14.4264 0.476678 7.18034 0.471913C1.65802 0.46834 0.703563 0.520262 0.378267 0.842108ZM29.5393 0.765641C29.1594 1.04198 29.1343 2.30911 29.1923 18.3349L29.2549 35.6064H39.3678H49.4806V32.7477V29.8889L42.6785 29.8256L35.8764 29.7624V15.6446C35.8764 3.25249 35.8307 1.46198 35.5015 0.997441C35.1539 0.505978 34.9403 0.467856 32.5378 0.467856C30.8455 0.467856 29.8071 0.571009 29.5393 0.765641ZM83.491 0.725146C83.131 0.932642 83.0696 1.34119 83.0696 3.52907C83.0696 5.20333 83.1695 6.18888 83.3585 6.37589C83.5603 6.57553 84.8675 6.66177 87.6926 6.66177H91.7377V20.9078C91.7377 31.6704 91.8083 35.2236 92.0267 35.4396C92.4252 35.8339 97.7922 35.8339 98.1907 35.4396C98.4091 35.2236 98.4796 31.6704 98.4796 20.9078V6.66177L102.513 6.65819C104.731 6.65605 106.708 6.55289 106.907 6.42878C107.179 6.2594 107.289 5.615 107.35 3.83378C107.478 0.139824 108.663 0.466434 95.1689 0.47501C87.9722 0.479775 83.7604 0.569822 83.491 0.725146ZM143.078 0.838778L142.543 1.20945V18.0066C142.543 29.1299 142.627 34.9596 142.792 35.2648C143.017 35.6802 143.32 35.7255 145.874 35.7255C147.756 35.7255 148.804 35.6295 148.996 35.4396C149.206 35.2312 149.284 33.3909 149.284 28.6502V22.1465H155.737C160.435 22.1465 162.269 22.0689 162.479 21.8607C162.668 21.6737 162.768 20.6872 162.768 19.0103C162.768 16.7188 162.719 16.4196 162.303 16.1992C162.016 16.0474 159.426 15.9526 155.561 15.9526H149.284V11.3072V6.66177L156.929 6.65819C161.318 6.65605 164.728 6.55837 164.935 6.42878C165.207 6.2594 165.317 5.615 165.379 3.83378C165.506 0.154594 166.562 0.467856 154.033 0.467856C144.992 0.467856 143.542 0.516933 143.078 0.838778ZM210.437 0.950505C209.99 1.39289 209.974 1.95845 209.965 17.9478C209.959 28.2876 210.044 34.7195 210.193 35.1064C210.431 35.7248 210.434 35.7255 213.278 35.7255C215.172 35.7255 216.222 35.6297 216.414 35.4396C216.625 35.2312 216.703 33.3909 216.703 28.6502V22.1465H219.534H222.366L225.798 28.9425L229.229 35.7386L232.658 35.6724L236.086 35.6064L236.154 35.0108C236.199 34.6116 235.068 32.3012 232.723 28.0031C230.798 24.4764 229.251 21.5715 229.284 21.5477C229.317 21.5238 229.88 21.2468 230.535 20.9321C232.03 20.2129 234.351 18.1119 235.162 16.7421C237.089 13.4898 237.148 9.46999 235.318 6.14386C234.502 4.66089 232.316 2.6038 230.687 1.7874C228.368 0.624848 226.924 0.469287 218.557 0.481437C211.333 0.492157 210.873 0.518837 210.437 0.950505ZM6.7414 11.8432L6.74188 16.9055H9.76537C13.7339 16.9055 14.7344 16.644 16.1603 15.233C18.1193 13.295 18.2861 10.6075 16.5679 8.67145C15.2499 7.18586 14.7368 7.03555 10.5337 6.90167L6.74092 6.78088L6.7414 11.8432ZM183.078 7.00005C177.321 8.38153 173.327 14.2314 174.275 19.8922C175.547 27.4883 183.711 31.8214 190.611 28.5634C192.403 27.7173 194.449 25.9339 195.517 24.2873C197.777 20.8022 197.784 15.6401 195.533 12.1696C192.81 7.9713 187.762 5.87585 183.078 7.00005ZM216.703 11.6824V16.7031L221.459 16.6256C226.011 16.5515 226.26 16.5227 227.287 15.9526C227.877 15.6251 228.69 14.8923 229.093 14.3241C229.746 13.4034 229.826 13.1034 229.826 11.564C229.826 10.0515 229.74 9.71489 229.137 8.85298C228.706 8.23788 227.988 7.64232 227.223 7.2652C226.041 6.68202 225.843 6.66177 221.351 6.66177H216.703V11.6824ZM66.1068 18.0245C64.8167 20.8813 63.7057 23.3527 63.6378 23.5164C63.5417 23.7489 64.6019 23.8141 68.4766 23.8141C71.7006 23.8141 73.4383 23.7286 73.4383 23.5702C73.4383 23.2746 68.8929 13.2926 68.635 13.0217C68.5346 12.9164 67.3971 15.1677 66.1068 18.0245ZM121.405 13.2521C120.974 14.0766 116.779 23.5216 116.779 23.6679C116.779 23.7484 119.007 23.8141 121.731 23.8141C126.444 23.8141 126.677 23.7927 126.542 23.3725C126.376 22.8543 121.857 13.0353 121.724 12.904C121.674 12.855 121.531 13.0117 121.405 13.2521ZM297.663 18.2742L295.219 23.695L297.737 23.7627C299.122 23.7998 301.382 23.7998 302.759 23.7627L305.264 23.695L302.863 18.454C301.542 15.5715 300.382 13.132 300.285 13.0332C300.187 12.9341 299.008 15.2925 297.663 18.2742ZM339.646 20.5385C339.313 20.8332 333.199 31.9556 326.059 45.2546C318.92 58.5536 312.726 70.0243 312.295 70.7449C311.864 71.4656 311.035 73.011 310.451 74.1792C307.487 80.1149 301.984 84.8692 297.365 85.486C290.119 86.4537 286.871 81.2815 290.403 74.3972C291.926 71.4291 294.958 68.8463 296.927 68.8413C298.309 68.8379 298.655 69.3458 298.452 71.0853C298.12 73.941 298.172 74.5104 298.823 75.1545C300.04 76.3583 301.995 76.3006 302.942 75.033C303.579 74.1797 304.179 71.1199 303.991 69.6827C303.44 65.4753 299.884 62.8396 295.759 63.581C291.287 64.385 286.962 68.4113 284.821 73.7647C282.973 78.3842 276.273 85.0386 273.469 85.0386C272.613 85.0386 271.668 84.0811 271.464 83.0089C271.176 81.4887 271.804 79.7566 274.401 74.9049C279.464 65.4449 279.422 65.5704 278.006 64.1699C277.317 63.4876 277.016 63.3599 276.099 63.3599C275.208 63.3599 274.877 63.4909 274.284 64.0779C273.885 64.4729 273.488 65.0125 273.404 65.2774C273.257 65.7333 273.203 65.7186 272.377 65.0013C270.884 63.7039 269.577 63.2579 267.267 63.2574C264.995 63.2572 263.396 63.6794 261.248 64.8462C258.25 66.4745 254.953 69.7148 252.58 73.3654C251.941 74.3481 251.002 75.792 250.494 76.5739C248.621 79.4555 245.036 82.5636 241.624 84.2639C240.168 84.9898 237.198 85.9915 236.503 85.9915C236.281 85.9915 236.765 85.3366 237.692 84.3835C241.551 80.417 243.578 76.5834 244.133 72.1998C244.772 67.1632 242.39 63.6372 238.049 63.1941C236.653 63.0514 234.367 63.54 232.85 64.3054L231.901 64.7842L232.519 63.4497C233.073 62.2524 233.107 62.0189 232.853 61.1777C232.527 60.1024 231.448 59.3117 230.307 59.3122C228.719 59.3129 228.459 59.6817 223.572 68.8775C221.02 73.6811 218.421 78.2679 217.796 79.0703C214.588 83.1964 212.323 84.8047 209.633 84.8668C208.888 84.8842 208.162 84.783 208.02 84.6422C207.542 84.1698 208.062 82.7204 209.901 79.3923C212.025 75.55 213.063 72.9092 213.257 70.8538C213.623 66.9759 211.483 63.8909 207.874 63.0916C205.372 62.5378 201.859 63.6898 199.412 65.8663C198.099 67.0341 197.922 67.1167 197.922 66.5605C197.922 66.3554 197.354 65.6259 196.658 64.9396C195.621 63.9157 195.114 63.6141 193.837 63.2608C191.726 62.6764 190.009 62.9056 186.758 64.2054C186.363 64.3633 186.341 64.3247 186.578 63.888C187.077 62.9642 186.901 61.7607 186.144 60.9219C185.522 60.2334 185.298 60.1438 184.197 60.1438C183.151 60.1438 182.865 60.2441 182.406 60.7715C182.106 61.1167 179.988 64.9067 177.698 69.1936C175.409 73.4805 172.921 77.8077 172.17 78.8097C168.158 84.1605 162.967 86.4634 160.586 83.9482C158.989 82.2618 160.664 76.7435 165.332 68.3093C166.17 66.7958 166.203 66.655 165.933 65.761C165.412 64.0419 163.699 63.3477 162.055 64.1892C160.32 65.0768 155.711 74.9273 154.826 79.6382C153.937 84.3685 155.72 88.0889 159.603 89.6028C161.561 90.3665 165.199 90.3587 167.181 89.5866L168.585 89.0403L169.144 89.5604C169.452 89.8465 170.121 90.1309 170.63 90.1924C172.249 90.3882 172.762 89.8391 175.145 85.3683C180.01 76.2413 187.619 68.3627 191.57 68.3627C192.998 68.3627 193.447 69.0283 193.297 70.9253C193.153 72.7518 192.248 74.8003 188.752 81.2155C187.149 84.1571 185.782 86.901 185.714 87.3129C185.334 89.6323 188.568 91.2306 190.144 89.5018C190.411 89.209 191.71 87.0397 193.031 84.6812C195.92 79.5253 199.226 74.1535 200.723 72.1829C202.555 69.7713 204.615 68.3627 206.308 68.3627C207.503 68.3627 207.922 68.8417 207.892 70.1739C207.861 71.5787 207.306 72.9397 205.212 76.7476C202.546 81.5957 202.012 83.7836 202.88 86.3036C203.853 89.1278 207.739 90.8609 211.279 90.0487C211.805 89.9282 212.266 89.8596 212.303 89.8965C212.34 89.9334 208.731 96.8154 204.282 105.19C199.833 113.564 194.253 124.069 191.881 128.535C189.363 133.276 187.569 136.923 187.569 137.301C187.569 138.314 188.189 139.252 189.158 139.707C189.891 140.051 190.201 140.078 190.935 139.86C191.424 139.715 191.99 139.408 192.192 139.178C192.395 138.947 198.706 127.181 206.218 113.03C213.729 98.8796 219.909 87.2682 219.95 87.2272C219.991 87.186 220.508 87.6148 221.099 88.1801C222.449 89.4708 224.241 90.3656 226.837 91.0448C229.729 91.8016 236.154 91.8057 238.9 91.0526C242.617 90.0333 245.526 88.6344 248.321 86.5223C249.09 85.9405 249.746 85.5029 249.778 85.5493C249.81 85.596 250.041 86.0985 250.29 86.6659C250.86 87.9609 252.507 89.4146 253.96 89.9044C256.965 90.9173 260.871 89.7624 264.654 86.7417L266.418 85.333L266.979 86.3174C268.473 88.9374 270.659 90.2734 273.458 90.2772C276.431 90.2812 279.146 88.9276 282.511 85.7654L284.31 84.0745L285.029 85.3306C287.167 89.0691 291.652 91.2251 296.643 90.914C300.38 90.681 303.927 89.2188 307.33 86.5085C308.771 85.3609 309.278 85.0731 309.433 85.3152C309.545 85.4905 309.639 85.7049 309.641 85.7914C309.653 86.3126 311.679 88.3571 312.758 88.9376C316.775 91.0986 321.271 90.7029 325.537 87.8125C328.072 86.0942 332.9 80.9046 334.073 78.6372C334.863 77.1089 333.919 75.225 332.205 74.9068C330.931 74.6704 330.176 75.1671 328.57 77.2962C325.792 80.9792 322.094 84.1362 319.74 84.8337C318.529 85.193 316.366 84.8992 315.376 84.241C313.543 83.0232 313.588 80.0117 315.495 76.2242C316.056 75.1105 317.885 71.7336 319.561 68.72C321.237 65.7064 323.966 60.7215 325.626 57.6424L328.643 52.0441L335.502 51.925L342.36 51.8059L343.087 51.1171C344.051 50.2024 344.231 49.2992 343.675 48.1719C342.901 46.6056 342.256 46.4465 336.673 46.4462C333.991 46.446 331.797 46.3852 331.797 46.3111C331.797 46.2371 334.49 41.1183 337.782 34.9358C341.074 28.7533 343.844 23.452 343.939 23.1552C344.18 22.4017 343.678 21.0543 342.943 20.4828C342.073 19.8057 340.442 19.8334 339.646 20.5385ZM170.057 46.6754C167.436 47.8525 167.341 51.49 169.904 52.5494C170.978 52.9934 171.843 52.9553 173.057 52.41C175.62 51.2587 175.759 47.7812 173.287 46.6704C172.016 46.0998 171.336 46.1008 170.057 46.6754ZM235.605 68.8953C233.654 69.5891 230.727 72.114 228.627 74.9139C226.535 77.7048 224.451 81.1085 224.312 81.965C224.134 83.053 224.633 84.3603 225.371 84.741C227.213 85.6906 231.218 83.6955 234.23 80.3272C237.149 77.0632 238.558 74.2788 238.788 71.3236C238.961 69.0878 238.697 68.5947 237.342 68.6197C236.784 68.6299 236.002 68.7541 235.605 68.8953ZM264.807 69.0626C262.438 69.979 259.294 72.8859 257.138 76.1534C255.393 78.7984 254.488 82.0107 254.979 83.8157C255.294 84.9714 255.896 85.1706 257.58 84.6758C260.589 83.7915 263.397 81.1274 267.028 75.7113C269.23 72.4264 269.434 72.0242 269.434 70.9884C269.434 69.2758 268.794 68.5978 267.19 68.6121C266.504 68.6183 265.432 68.8208 264.807 69.0626Z" fill="white"/>
<path fill-rule="evenodd" clip-rule="evenodd" d="M1.72207 46.8495C0.0561003 47.6617 -0.202258 49.8838 1.23063 51.0769L1.96309 51.6867H81.7795C140.091 51.6867 161.738 51.615 162.122 51.4206C163.441 50.7534 163.936 48.8483 163.098 47.6648C162.179 46.3664 167.467 46.4453 81.8132 46.4512C8.63058 46.4562 2.46608 46.487 1.72207 46.8495ZM180.903 46.7945C180.02 47.1742 179.382 48.232 179.382 49.3164C179.382 49.8522 179.616 50.2986 180.201 50.8768L181.019 51.6867H248.444H315.868L316.601 51.0769C318.065 49.8581 317.751 47.5011 316.031 46.79C314.805 46.283 182.081 46.2876 180.903 46.7945Z" fill="#EB7B3C"/>
</svg>
