<svg width="294" height="254" viewBox="0 0 294 254" fill="none" xmlns="http://www.w3.org/2000/svg">
<g filter="url(#filter0_d_2_2)">
<rect x="7" y="7" width="280" height="240" rx="3" fill="#1D1D1B"/>
</g>
<g filter="url(#filter1_d_2_2)">
<rect x="7" y="7" width="280" height="240" rx="3" fill="#1D1D1B"/>
</g>
<path d="M147 55.25C147 53.5924 147.658 52.0027 148.831 50.8306C150.003 49.6585 151.592 49 153.25 49H190.75C192.408 49 193.997 49.6585 195.169 50.8306C196.342 52.0027 197 53.5924 197 55.25V142.75C197 144.408 196.342 145.997 195.169 147.169C193.997 148.342 192.408 149 190.75 149H153.25C151.592 149 150.003 148.342 148.831 147.169C147.658 145.997 147 144.408 147 142.75V55.25ZM153.25 139.625C153.25 140.454 153.579 141.249 154.165 141.835C154.751 142.421 155.546 142.75 156.375 142.75C157.204 142.75 157.999 142.421 158.585 141.835C159.171 141.249 159.5 140.454 159.5 139.625C159.5 138.796 159.171 138.001 158.585 137.415C157.999 136.829 157.204 136.5 156.375 136.5C155.546 136.5 154.751 136.829 154.165 137.415C153.579 138.001 153.25 138.796 153.25 139.625ZM165.75 139.625C165.75 140.454 166.079 141.249 166.665 141.835C167.251 142.421 168.046 142.75 168.875 142.75C169.704 142.75 170.499 142.421 171.085 141.835C171.671 141.249 172 140.454 172 139.625C172 138.796 171.671 138.001 171.085 137.415C170.499 136.829 169.704 136.5 168.875 136.5C168.046 136.5 167.251 136.829 166.665 137.415C166.079 138.001 165.75 138.796 165.75 139.625ZM156.375 55.25C155.546 55.25 154.751 55.5792 154.165 56.1653C153.579 56.7513 153.25 57.5462 153.25 58.375C153.25 59.2038 153.579 59.9987 154.165 60.5847C154.751 61.1708 155.546 61.5 156.375 61.5H187.625C188.454 61.5 189.249 61.1708 189.835 60.5847C190.421 59.9987 190.75 59.2038 190.75 58.375C190.75 57.5462 190.421 56.7513 189.835 56.1653C189.249 55.5792 188.454 55.25 187.625 55.25H156.375ZM153.25 70.875C153.25 71.7038 153.579 72.4987 154.165 73.0847C154.751 73.6708 155.546 74 156.375 74H187.625C188.454 74 189.249 73.6708 189.835 73.0847C190.421 72.4987 190.75 71.7038 190.75 70.875C190.75 70.0462 190.421 69.2513 189.835 68.6653C189.249 68.0792 188.454 67.75 187.625 67.75H156.375C155.546 67.75 154.751 68.0792 154.165 68.6653C153.579 69.2513 153.25 70.0462 153.25 70.875ZM106.375 61.5C103.889 61.5 101.504 62.4877 99.7459 64.2459C97.9877 66.004 97 68.3886 97 70.875V114.625C97 117.111 97.9877 119.496 99.7459 121.254C101.504 123.012 103.889 124 106.375 124H134.5V136.5H131.375C130.546 136.5 129.751 136.829 129.165 137.415C128.579 138.001 128.25 138.796 128.25 139.625C128.25 140.454 128.579 141.249 129.165 141.835C129.751 142.421 130.546 142.75 131.375 142.75H140.75V117.75H106.375C105.546 117.75 104.751 117.421 104.165 116.835C103.579 116.249 103.25 115.454 103.25 114.625V70.875C103.25 70.0462 103.579 69.2513 104.165 68.6653C104.751 68.0792 105.546 67.75 106.375 67.75H140.75V61.5H106.375Z" fill="#D9D9D9"/>
<path d="M18.1815 204V190H24.2415C25.4948 190 26.5748 190.207 27.4815 190.62C28.3882 191.02 29.0882 191.6 29.5815 192.36C30.0748 193.12 30.3215 194.027 30.3215 195.08C30.3215 196.12 30.0748 197.02 29.5815 197.78C29.0882 198.54 28.3882 199.127 27.4815 199.54C26.5748 199.94 25.4948 200.14 24.2415 200.14H19.9815L21.4215 198.68V204H18.1815ZM21.4215 199.04L19.9815 197.5H24.0615C25.0615 197.5 25.8082 197.287 26.3015 196.86C26.7948 196.433 27.0415 195.84 27.0415 195.08C27.0415 194.307 26.7948 193.707 26.3015 193.28C25.8082 192.853 25.0615 192.64 24.0615 192.64H19.9815L21.4215 191.1V199.04ZM37.7351 204.16C36.5084 204.16 35.4284 203.92 34.4951 203.44C33.5751 202.96 32.8617 202.307 32.3551 201.48C31.8484 200.64 31.5951 199.687 31.5951 198.62C31.5951 197.54 31.8417 196.587 32.3351 195.76C32.8417 194.92 33.5284 194.267 34.3951 193.8C35.2617 193.32 36.2417 193.08 37.3351 193.08C38.3884 193.08 39.3351 193.307 40.1751 193.76C41.0284 194.2 41.7017 194.84 42.1951 195.68C42.6884 196.507 42.9351 197.5 42.9351 198.66C42.9351 198.78 42.9284 198.92 42.9151 199.08C42.9017 199.227 42.8884 199.367 42.8751 199.5H34.1351V197.68H41.2351L40.0351 198.22C40.0351 197.66 39.9217 197.173 39.6951 196.76C39.4684 196.347 39.1551 196.027 38.7551 195.8C38.3551 195.56 37.8884 195.44 37.3551 195.44C36.8217 195.44 36.3484 195.56 35.9351 195.8C35.5351 196.027 35.2217 196.353 34.9951 196.78C34.7684 197.193 34.6551 197.687 34.6551 198.26V198.74C34.6551 199.327 34.7817 199.847 35.0351 200.3C35.3017 200.74 35.6684 201.08 36.1351 201.32C36.6151 201.547 37.1751 201.66 37.8151 201.66C38.3884 201.66 38.8884 201.573 39.3151 201.4C39.7551 201.227 40.1551 200.967 40.5151 200.62L42.1751 202.42C41.6817 202.98 41.0617 203.413 40.3151 203.72C39.5684 204.013 38.7084 204.16 37.7351 204.16ZM48.6323 204.16C47.7123 204.16 46.8256 204.053 45.9723 203.84C45.1323 203.613 44.4656 203.333 43.9723 203L45.0123 200.76C45.5056 201.067 46.0856 201.32 46.7523 201.52C47.4323 201.707 48.0989 201.8 48.7523 201.8C49.4723 201.8 49.9789 201.713 50.2723 201.54C50.5789 201.367 50.7323 201.127 50.7323 200.82C50.7323 200.567 50.6123 200.38 50.3723 200.26C50.1456 200.127 49.8389 200.027 49.4523 199.96C49.0656 199.893 48.6389 199.827 48.1723 199.76C47.7189 199.693 47.2589 199.607 46.7923 199.5C46.3256 199.38 45.8989 199.207 45.5123 198.98C45.1256 198.753 44.8123 198.447 44.5723 198.06C44.3456 197.673 44.2323 197.173 44.2323 196.56C44.2323 195.88 44.4256 195.28 44.8123 194.76C45.2123 194.24 45.7856 193.833 46.5323 193.54C47.2789 193.233 48.1723 193.08 49.2123 193.08C49.9456 193.08 50.6923 193.16 51.4523 193.32C52.2123 193.48 52.8456 193.713 53.3523 194.02L52.3123 196.24C51.7923 195.933 51.2656 195.727 50.7323 195.62C50.2123 195.5 49.7056 195.44 49.2123 195.44C48.5189 195.44 48.0123 195.533 47.6923 195.72C47.3723 195.907 47.2123 196.147 47.2123 196.44C47.2123 196.707 47.3256 196.907 47.5523 197.04C47.7923 197.173 48.1056 197.28 48.4923 197.36C48.8789 197.44 49.2989 197.513 49.7523 197.58C50.2189 197.633 50.6856 197.72 51.1523 197.84C51.6189 197.96 52.0389 198.133 52.4123 198.36C52.7989 198.573 53.1123 198.873 53.3523 199.26C53.5923 199.633 53.7123 200.127 53.7123 200.74C53.7123 201.407 53.5123 202 53.1123 202.52C52.7123 203.027 52.1323 203.427 51.3723 203.72C50.6256 204.013 49.7123 204.16 48.6323 204.16ZM60.2173 204.16C59.2039 204.16 58.2906 203.933 57.4773 203.48C56.6639 203.027 56.0173 202.387 55.5373 201.56C55.0706 200.733 54.8373 199.753 54.8373 198.62C54.8373 197.5 55.0706 196.527 55.5373 195.7C56.0173 194.873 56.6639 194.233 57.4773 193.78C58.2906 193.313 59.2039 193.08 60.2173 193.08C61.1639 193.08 61.9706 193.28 62.6373 193.68C63.3173 194.08 63.8373 194.687 64.1973 195.5C64.5573 196.313 64.7373 197.353 64.7373 198.62C64.7373 199.873 64.5506 200.913 64.1773 201.74C63.8039 202.553 63.2773 203.16 62.5973 203.56C61.9173 203.96 61.1239 204.16 60.2173 204.16ZM60.7573 201.6C61.2639 201.6 61.7239 201.48 62.1373 201.24C62.5506 201 62.8773 200.66 63.1173 200.22C63.3706 199.767 63.4973 199.233 63.4973 198.62C63.4973 197.993 63.3706 197.46 63.1173 197.02C62.8773 196.58 62.5506 196.24 62.1373 196C61.7239 195.76 61.2639 195.64 60.7573 195.64C60.2373 195.64 59.7706 195.76 59.3573 196C58.9439 196.24 58.6106 196.58 58.3573 197.02C58.1173 197.46 57.9973 197.993 57.9973 198.62C57.9973 199.233 58.1173 199.767 58.3573 200.22C58.6106 200.66 58.9439 201 59.3573 201.24C59.7706 201.48 60.2373 201.6 60.7573 201.6ZM63.4373 207.88V201.82L63.6373 198.64L63.5773 195.44V193.24H66.5573V207.88H63.4373ZM73.9859 204.16C73.0925 204.16 72.2925 203.987 71.5859 203.64C70.8925 203.293 70.3525 202.767 69.9659 202.06C69.5792 201.34 69.3859 200.427 69.3859 199.32V193.24H72.5059V198.86C72.5059 199.753 72.6925 200.413 73.0659 200.84C73.4525 201.253 73.9925 201.46 74.6859 201.46C75.1659 201.46 75.5925 201.36 75.9659 201.16C76.3392 200.947 76.6325 200.627 76.8459 200.2C77.0592 199.76 77.1659 199.213 77.1659 198.56V193.24H80.2859V204H77.3259V201.04L77.8659 201.9C77.5059 202.647 76.9725 203.213 76.2659 203.6C75.5725 203.973 74.8125 204.16 73.9859 204.16ZM83.1763 204V193.24H86.2963V204H83.1763ZM84.7363 191.74C84.163 191.74 83.6963 191.573 83.3363 191.24C82.9763 190.907 82.7963 190.493 82.7963 190C82.7963 189.507 82.9763 189.093 83.3363 188.76C83.6963 188.427 84.163 188.26 84.7363 188.26C85.3097 188.26 85.7763 188.42 86.1363 188.74C86.4963 189.047 86.6763 189.447 86.6763 189.94C86.6763 190.46 86.4963 190.893 86.1363 191.24C85.7897 191.573 85.323 191.74 84.7363 191.74ZM92.812 204.16C91.892 204.16 91.0053 204.053 90.152 203.84C89.312 203.613 88.6453 203.333 88.152 203L89.192 200.76C89.6853 201.067 90.2653 201.32 90.932 201.52C91.612 201.707 92.2786 201.8 92.932 201.8C93.652 201.8 94.1586 201.713 94.452 201.54C94.7586 201.367 94.912 201.127 94.912 200.82C94.912 200.567 94.792 200.38 94.552 200.26C94.3253 200.127 94.0186 200.027 93.632 199.96C93.2453 199.893 92.8186 199.827 92.352 199.76C91.8986 199.693 91.4386 199.607 90.972 199.5C90.5053 199.38 90.0786 199.207 89.692 198.98C89.3053 198.753 88.992 198.447 88.752 198.06C88.5253 197.673 88.412 197.173 88.412 196.56C88.412 195.88 88.6053 195.28 88.992 194.76C89.392 194.24 89.9653 193.833 90.712 193.54C91.4586 193.233 92.352 193.08 93.392 193.08C94.1253 193.08 94.872 193.16 95.632 193.32C96.392 193.48 97.0253 193.713 97.532 194.02L96.492 196.24C95.972 195.933 95.4453 195.727 94.912 195.62C94.392 195.5 93.8853 195.44 93.392 195.44C92.6986 195.44 92.192 195.533 91.872 195.72C91.552 195.907 91.392 196.147 91.392 196.44C91.392 196.707 91.5053 196.907 91.732 197.04C91.972 197.173 92.2853 197.28 92.672 197.36C93.0586 197.44 93.4786 197.513 93.932 197.58C94.3986 197.633 94.8653 197.72 95.332 197.84C95.7986 197.96 96.2186 198.133 96.592 198.36C96.9786 198.573 97.292 198.873 97.532 199.26C97.772 199.633 97.892 200.127 97.892 200.74C97.892 201.407 97.692 202 97.292 202.52C96.892 203.027 96.312 203.427 95.552 203.72C94.8053 204.013 93.892 204.16 92.812 204.16ZM106.417 204V201.9L106.217 201.44V197.68C106.217 197.013 106.01 196.493 105.597 196.12C105.197 195.747 104.577 195.56 103.737 195.56C103.164 195.56 102.597 195.653 102.037 195.84C101.49 196.013 101.024 196.253 100.637 196.56L99.517 194.38C100.104 193.967 100.81 193.647 101.637 193.42C102.464 193.193 103.304 193.08 104.157 193.08C105.797 193.08 107.07 193.467 107.977 194.24C108.884 195.013 109.337 196.22 109.337 197.86V204H106.417ZM103.137 204.16C102.297 204.16 101.577 204.02 100.977 203.74C100.377 203.447 99.917 203.053 99.597 202.56C99.277 202.067 99.117 201.513 99.117 200.9C99.117 200.26 99.2703 199.7 99.577 199.22C99.897 198.74 100.397 198.367 101.077 198.1C101.757 197.82 102.644 197.68 103.737 197.68H106.597V199.5H104.077C103.344 199.5 102.837 199.62 102.557 199.86C102.29 200.1 102.157 200.4 102.157 200.76C102.157 201.16 102.31 201.48 102.617 201.72C102.937 201.947 103.37 202.06 103.917 202.06C104.437 202.06 104.904 201.94 105.317 201.7C105.73 201.447 106.03 201.08 106.217 200.6L106.697 202.04C106.47 202.733 106.057 203.26 105.457 203.62C104.857 203.98 104.084 204.16 103.137 204.16ZM112.161 204V193.24H115.141V196.28L114.721 195.4C115.041 194.64 115.554 194.067 116.261 193.68C116.967 193.28 117.827 193.08 118.841 193.08V195.96C118.707 195.947 118.587 195.94 118.481 195.94C118.374 195.927 118.261 195.92 118.141 195.92C117.287 195.92 116.594 196.167 116.061 196.66C115.541 197.14 115.281 197.893 115.281 198.92V204H112.161ZM129.638 195.64H136.378V198.16H129.638V195.64ZM129.878 201.4H137.498V204H126.658V190H137.238V192.6H129.878V201.4ZM144.377 204.16C143.364 204.16 142.451 203.933 141.637 203.48C140.824 203.027 140.177 202.387 139.697 201.56C139.231 200.733 138.997 199.753 138.997 198.62C138.997 197.5 139.231 196.527 139.697 195.7C140.177 194.873 140.824 194.233 141.637 193.78C142.451 193.313 143.364 193.08 144.377 193.08C145.324 193.08 146.131 193.28 146.797 193.68C147.477 194.08 147.997 194.687 148.357 195.5C148.717 196.313 148.897 197.353 148.897 198.62C148.897 199.873 148.711 200.913 148.337 201.74C147.964 202.553 147.437 203.16 146.757 203.56C146.077 203.96 145.284 204.16 144.377 204.16ZM144.917 201.6C145.424 201.6 145.884 201.48 146.297 201.24C146.711 201 147.037 200.66 147.277 200.22C147.531 199.767 147.657 199.233 147.657 198.62C147.657 197.993 147.531 197.46 147.277 197.02C147.037 196.58 146.711 196.24 146.297 196C145.884 195.76 145.424 195.64 144.917 195.64C144.397 195.64 143.931 195.76 143.517 196C143.104 196.24 142.771 196.58 142.517 197.02C142.277 197.46 142.157 197.993 142.157 198.62C142.157 199.233 142.277 199.767 142.517 200.22C142.771 200.66 143.104 201 143.517 201.24C143.931 201.48 144.397 201.6 144.917 201.6ZM147.597 207.88V201.82L147.797 198.64L147.737 195.44V193.24H150.717V207.88H147.597ZM158.146 204.16C157.253 204.16 156.453 203.987 155.746 203.64C155.053 203.293 154.513 202.767 154.126 202.06C153.739 201.34 153.546 200.427 153.546 199.32V193.24H156.666V198.86C156.666 199.753 156.853 200.413 157.226 200.84C157.613 201.253 158.153 201.46 158.846 201.46C159.326 201.46 159.753 201.36 160.126 201.16C160.499 200.947 160.793 200.627 161.006 200.2C161.219 199.76 161.326 199.213 161.326 198.56V193.24H164.446V204H161.486V201.04L162.026 201.9C161.666 202.647 161.133 203.213 160.426 203.6C159.733 203.973 158.973 204.16 158.146 204.16ZM167.336 204V193.24H170.456V204H167.336ZM168.896 191.74C168.323 191.74 167.856 191.573 167.496 191.24C167.136 190.907 166.956 190.493 166.956 190C166.956 189.507 167.136 189.093 167.496 188.76C167.856 188.427 168.323 188.26 168.896 188.26C169.47 188.26 169.936 188.42 170.296 188.74C170.656 189.047 170.836 189.447 170.836 189.94C170.836 190.46 170.656 190.893 170.296 191.24C169.95 191.573 169.483 191.74 168.896 191.74ZM179.712 204.16C178.805 204.16 178.012 203.96 177.332 203.56C176.652 203.16 176.119 202.553 175.732 201.74C175.359 200.913 175.172 199.873 175.172 198.62C175.172 197.353 175.352 196.313 175.712 195.5C176.072 194.687 176.592 194.08 177.272 193.68C177.952 193.28 178.765 193.08 179.712 193.08C180.725 193.08 181.632 193.313 182.432 193.78C183.245 194.233 183.885 194.873 184.352 195.7C184.832 196.527 185.072 197.5 185.072 198.62C185.072 199.753 184.832 200.733 184.352 201.56C183.885 202.387 183.245 203.027 182.432 203.48C181.632 203.933 180.725 204.16 179.712 204.16ZM173.352 207.88V193.24H176.332V195.44L176.272 198.64L176.472 201.82V207.88H173.352ZM179.172 201.6C179.692 201.6 180.152 201.48 180.552 201.24C180.965 201 181.292 200.66 181.532 200.22C181.785 199.767 181.912 199.233 181.912 198.62C181.912 197.993 181.785 197.46 181.532 197.02C181.292 196.58 180.965 196.24 180.552 196C180.152 195.76 179.692 195.64 179.172 195.64C178.652 195.64 178.185 195.76 177.772 196C177.359 196.24 177.032 196.58 176.792 197.02C176.552 197.46 176.432 197.993 176.432 198.62C176.432 199.233 176.552 199.767 176.792 200.22C177.032 200.66 177.359 201 177.772 201.24C178.185 201.48 178.652 201.6 179.172 201.6ZM193.585 204V201.9L193.385 201.44V197.68C193.385 197.013 193.178 196.493 192.765 196.12C192.365 195.747 191.745 195.56 190.905 195.56C190.332 195.56 189.765 195.653 189.205 195.84C188.658 196.013 188.192 196.253 187.805 196.56L186.685 194.38C187.272 193.967 187.978 193.647 188.805 193.42C189.632 193.193 190.472 193.08 191.325 193.08C192.965 193.08 194.238 193.467 195.145 194.24C196.052 195.013 196.505 196.22 196.505 197.86V204H193.585ZM190.305 204.16C189.465 204.16 188.745 204.02 188.145 203.74C187.545 203.447 187.085 203.053 186.765 202.56C186.445 202.067 186.285 201.513 186.285 200.9C186.285 200.26 186.438 199.7 186.745 199.22C187.065 198.74 187.565 198.367 188.245 198.1C188.925 197.82 189.812 197.68 190.905 197.68H193.765V199.5H191.245C190.512 199.5 190.005 199.62 189.725 199.86C189.458 200.1 189.325 200.4 189.325 200.76C189.325 201.16 189.478 201.48 189.785 201.72C190.105 201.947 190.538 202.06 191.085 202.06C191.605 202.06 192.072 201.94 192.485 201.7C192.898 201.447 193.198 201.08 193.385 200.6L193.865 202.04C193.638 202.733 193.225 203.26 192.625 203.62C192.025 203.98 191.252 204.16 190.305 204.16ZM213.109 193.08C213.962 193.08 214.715 193.253 215.369 193.6C216.035 193.933 216.555 194.453 216.929 195.16C217.315 195.853 217.509 196.747 217.509 197.84V204H214.389V198.32C214.389 197.453 214.209 196.813 213.849 196.4C213.489 195.987 212.982 195.78 212.329 195.78C211.875 195.78 211.469 195.887 211.109 196.1C210.749 196.3 210.469 196.607 210.269 197.02C210.069 197.433 209.969 197.96 209.969 198.6V204H206.849V198.32C206.849 197.453 206.669 196.813 206.309 196.4C205.962 195.987 205.462 195.78 204.809 195.78C204.355 195.78 203.949 195.887 203.589 196.1C203.229 196.3 202.949 196.607 202.749 197.02C202.549 197.433 202.449 197.96 202.449 198.6V204H199.329V193.24H202.309V196.18L201.749 195.32C202.122 194.587 202.649 194.033 203.329 193.66C204.022 193.273 204.809 193.08 205.689 193.08C206.675 193.08 207.535 193.333 208.269 193.84C209.015 194.333 209.509 195.093 209.749 196.12L208.649 195.82C209.009 194.98 209.582 194.313 210.369 193.82C211.169 193.327 212.082 193.08 213.109 193.08ZM225.723 204.16C224.497 204.16 223.417 203.92 222.483 203.44C221.563 202.96 220.85 202.307 220.343 201.48C219.837 200.64 219.583 199.687 219.583 198.62C219.583 197.54 219.83 196.587 220.323 195.76C220.83 194.92 221.517 194.267 222.383 193.8C223.25 193.32 224.23 193.08 225.323 193.08C226.377 193.08 227.323 193.307 228.163 193.76C229.017 194.2 229.69 194.84 230.183 195.68C230.677 196.507 230.923 197.5 230.923 198.66C230.923 198.78 230.917 198.92 230.903 199.08C230.89 199.227 230.877 199.367 230.863 199.5H222.123V197.68H229.223L228.023 198.22C228.023 197.66 227.91 197.173 227.683 196.76C227.457 196.347 227.143 196.027 226.743 195.8C226.343 195.56 225.877 195.44 225.343 195.44C224.81 195.44 224.337 195.56 223.923 195.8C223.523 196.027 223.21 196.353 222.983 196.78C222.757 197.193 222.643 197.687 222.643 198.26V198.74C222.643 199.327 222.77 199.847 223.023 200.3C223.29 200.74 223.657 201.08 224.123 201.32C224.603 201.547 225.163 201.66 225.803 201.66C226.377 201.66 226.877 201.573 227.303 201.4C227.743 201.227 228.143 200.967 228.503 200.62L230.163 202.42C229.67 202.98 229.05 203.413 228.303 203.72C227.557 204.013 226.697 204.16 225.723 204.16ZM239.541 193.08C240.394 193.08 241.154 193.253 241.821 193.6C242.501 193.933 243.034 194.453 243.421 195.16C243.807 195.853 244.001 196.747 244.001 197.84V204H240.881V198.32C240.881 197.453 240.687 196.813 240.301 196.4C239.927 195.987 239.394 195.78 238.701 195.78C238.207 195.78 237.761 195.887 237.361 196.1C236.974 196.3 236.667 196.613 236.441 197.04C236.227 197.467 236.121 198.013 236.121 198.68V204H233.001V193.24H235.981V196.22L235.421 195.32C235.807 194.6 236.361 194.047 237.081 193.66C237.801 193.273 238.621 193.08 239.541 193.08ZM251.229 204.16C249.962 204.16 248.975 203.84 248.269 203.2C247.562 202.547 247.209 201.58 247.209 200.3V190.86H250.329V200.26C250.329 200.713 250.449 201.067 250.689 201.32C250.929 201.56 251.255 201.68 251.669 201.68C252.162 201.68 252.582 201.547 252.929 201.28L253.769 203.48C253.449 203.707 253.062 203.88 252.609 204C252.169 204.107 251.709 204.16 251.229 204.16ZM245.549 195.88V193.48H253.009V195.88H245.549ZM260.308 204.16C259.161 204.16 258.141 203.92 257.248 203.44C256.368 202.96 255.668 202.307 255.148 201.48C254.641 200.64 254.388 199.687 254.388 198.62C254.388 197.54 254.641 196.587 255.148 195.76C255.668 194.92 256.368 194.267 257.248 193.8C258.141 193.32 259.161 193.08 260.308 193.08C261.441 193.08 262.455 193.32 263.348 193.8C264.241 194.267 264.941 194.913 265.448 195.74C265.955 196.567 266.208 197.527 266.208 198.62C266.208 199.687 265.955 200.64 265.448 201.48C264.941 202.307 264.241 202.96 263.348 203.44C262.455 203.92 261.441 204.16 260.308 204.16ZM260.308 201.6C260.828 201.6 261.295 201.48 261.708 201.24C262.121 201 262.448 200.66 262.688 200.22C262.928 199.767 263.048 199.233 263.048 198.62C263.048 197.993 262.928 197.46 262.688 197.02C262.448 196.58 262.121 196.24 261.708 196C261.295 195.76 260.828 195.64 260.308 195.64C259.788 195.64 259.321 195.76 258.908 196C258.495 196.24 258.161 196.58 257.908 197.02C257.668 197.46 257.548 197.993 257.548 198.62C257.548 199.233 257.668 199.767 257.908 200.22C258.161 200.66 258.495 201 258.908 201.24C259.321 201.48 259.788 201.6 260.308 201.6ZM271.914 204.16C270.994 204.16 270.107 204.053 269.254 203.84C268.414 203.613 267.747 203.333 267.254 203L268.294 200.76C268.787 201.067 269.367 201.32 270.034 201.52C270.714 201.707 271.38 201.8 272.034 201.8C272.754 201.8 273.26 201.713 273.554 201.54C273.86 201.367 274.014 201.127 274.014 200.82C274.014 200.567 273.894 200.38 273.654 200.26C273.427 200.127 273.12 200.027 272.734 199.96C272.347 199.893 271.92 199.827 271.454 199.76C271 199.693 270.54 199.607 270.074 199.5C269.607 199.38 269.18 199.207 268.794 198.98C268.407 198.753 268.094 198.447 267.854 198.06C267.627 197.673 267.514 197.173 267.514 196.56C267.514 195.88 267.707 195.28 268.094 194.76C268.494 194.24 269.067 193.833 269.814 193.54C270.56 193.233 271.454 193.08 272.494 193.08C273.227 193.08 273.974 193.16 274.734 193.32C275.494 193.48 276.127 193.713 276.634 194.02L275.594 196.24C275.074 195.933 274.547 195.727 274.014 195.62C273.494 195.5 272.987 195.44 272.494 195.44C271.8 195.44 271.294 195.533 270.974 195.72C270.654 195.907 270.494 196.147 270.494 196.44C270.494 196.707 270.607 196.907 270.834 197.04C271.074 197.173 271.387 197.28 271.774 197.36C272.16 197.44 272.58 197.513 273.034 197.58C273.5 197.633 273.967 197.72 274.434 197.84C274.9 197.96 275.32 198.133 275.694 198.36C276.08 198.573 276.394 198.873 276.634 199.26C276.874 199.633 276.994 200.127 276.994 200.74C276.994 201.407 276.794 202 276.394 202.52C275.994 203.027 275.414 203.427 274.654 203.72C273.907 204.013 272.994 204.16 271.914 204.16Z" fill="#D9D9D9"/>
<defs>
<filter id="filter0_d_2_2" x="0" y="0" width="294" height="254" filterUnits="userSpaceOnUse" color-interpolation-filters="sRGB">
<feFlood flood-opacity="0" result="BackgroundImageFix"/>
<feColorMatrix in="SourceAlpha" type="matrix" values="0 0 0 0 0 0 0 0 0 0 0 0 0 0 0 0 0 0 127 0" result="hardAlpha"/>
<feMorphology radius="3" operator="dilate" in="SourceAlpha" result="effect1_dropShadow_2_2"/>
<feOffset/>
<feGaussianBlur stdDeviation="2"/>
<feComposite in2="hardAlpha" operator="out"/>
<feColorMatrix type="matrix" values="0 0 0 0 0.898039 0 0 0 0 0.898039 0 0 0 0 0.898039 0 0 0 0.2 0"/>
<feBlend mode="normal" in2="BackgroundImageFix" result="effect1_dropShadow_2_2"/>
<feBlend mode="normal" in="SourceGraphic" in2="effect1_dropShadow_2_2" result="shape"/>
</filter>
<filter id="filter1_d_2_2" x="0" y="0" width="294" height="254" filterUnits="userSpaceOnUse" color-interpolation-filters="sRGB">
<feFlood flood-opacity="0" result="BackgroundImageFix"/>
<feColorMatrix in="SourceAlpha" type="matrix" values="0 0 0 0 0 0 0 0 0 0 0 0 0 0 0 0 0 0 127 0" result="hardAlpha"/>
<feMorphology radius="3" operator="dilate" in="SourceAlpha" result="effect1_dropShadow_2_2"/>
<feOffset/>
<feGaussianBlur stdDeviation="2"/>
<feComposite in2="hardAlpha" operator="out"/>
<feColorMatrix type="matrix" values="0 0 0 0 0.898039 0 0 0 0 0.898039 0 0 0 0 0.898039 0 0 0 0.2 0"/>
<feBlend mode="normal" in2="BackgroundImageFix" result="effect1_dropShadow_2_2"/>
<feBlend mode="normal" in="SourceGraphic" in2="effect1_dropShadow_2_2" result="shape"/>
</filter>
</defs>
</svg>
