<svg width="520" height="520" viewBox="0 0 520 520" fill="none" xmlns="http://www.w3.org/2000/svg">
<circle cx="260" cy="260" r="260" fill="#333333"/>
<path d="M211.711 380V354.56H201.871V352H224.511V354.56H214.671V380H211.711ZM235.012 380.2C232.986 380.2 231.159 379.747 229.532 378.84C227.932 377.907 226.666 376.64 225.732 375.04C224.799 373.413 224.332 371.56 224.332 369.48C224.332 367.373 224.799 365.52 225.732 363.92C226.666 362.32 227.932 361.067 229.532 360.16C231.132 359.253 232.959 358.8 235.012 358.8C237.092 358.8 238.932 359.253 240.532 360.16C242.159 361.067 243.426 362.32 244.332 363.92C245.266 365.52 245.732 367.373 245.732 369.48C245.732 371.56 245.266 373.413 244.332 375.04C243.426 376.64 242.159 377.907 240.532 378.84C238.906 379.747 237.066 380.2 235.012 380.2ZM235.012 377.68C236.532 377.68 237.879 377.347 239.052 376.68C240.226 375.987 241.146 375.027 241.812 373.8C242.506 372.547 242.852 371.107 242.852 369.48C242.852 367.827 242.506 366.387 241.812 365.16C241.146 363.933 240.226 362.987 239.052 362.32C237.879 361.627 236.546 361.28 235.052 361.28C233.559 361.28 232.226 361.627 231.052 362.32C229.879 362.987 228.946 363.933 228.252 365.16C227.559 366.387 227.212 367.827 227.212 369.48C227.212 371.107 227.559 372.547 228.252 373.8C228.946 375.027 229.879 375.987 231.052 376.68C232.226 377.347 233.546 377.68 235.012 377.68ZM259.89 380.2C257.89 380.2 256.09 379.747 254.49 378.84C252.917 377.933 251.677 376.68 250.77 375.08C249.864 373.453 249.41 371.587 249.41 369.48C249.41 367.347 249.864 365.48 250.77 363.88C251.677 362.28 252.917 361.04 254.49 360.16C256.09 359.253 257.89 358.8 259.89 358.8C261.73 358.8 263.37 359.213 264.81 360.04C266.277 360.867 267.437 362.08 268.29 363.68C269.17 365.253 269.61 367.187 269.61 369.48C269.61 371.747 269.184 373.68 268.33 375.28C267.477 376.88 266.317 378.107 264.85 378.96C263.41 379.787 261.757 380.2 259.89 380.2ZM260.09 377.68C261.584 377.68 262.917 377.347 264.09 376.68C265.29 375.987 266.224 375.027 266.89 373.8C267.584 372.547 267.93 371.107 267.93 369.48C267.93 367.827 267.584 366.387 266.89 365.16C266.224 363.933 265.29 362.987 264.09 362.32C262.917 361.627 261.584 361.28 260.09 361.28C258.624 361.28 257.304 361.627 256.13 362.32C254.957 362.987 254.024 363.933 253.33 365.16C252.637 366.387 252.29 367.827 252.29 369.48C252.29 371.107 252.637 372.547 253.33 373.8C254.024 375.027 254.957 375.987 256.13 376.68C257.304 377.347 258.624 377.68 260.09 377.68ZM268.01 380V373.68L268.29 369.44L267.89 365.2V350.32H270.73V380H268.01ZM287.2 380.2C285.173 380.2 283.346 379.747 281.72 378.84C280.12 377.907 278.853 376.64 277.92 375.04C276.986 373.413 276.52 371.56 276.52 369.48C276.52 367.373 276.986 365.52 277.92 363.92C278.853 362.32 280.12 361.067 281.72 360.16C283.32 359.253 285.146 358.8 287.2 358.8C289.28 358.8 291.12 359.253 292.72 360.16C294.346 361.067 295.613 362.32 296.52 363.92C297.453 365.52 297.92 367.373 297.92 369.48C297.92 371.56 297.453 373.413 296.52 375.04C295.613 376.64 294.346 377.907 292.72 378.84C291.093 379.747 289.253 380.2 287.2 380.2ZM287.2 377.68C288.72 377.68 290.066 377.347 291.24 376.68C292.413 375.987 293.333 375.027 294 373.8C294.693 372.547 295.04 371.107 295.04 369.48C295.04 367.827 294.693 366.387 294 365.16C293.333 363.933 292.413 362.987 291.24 362.32C290.066 361.627 288.733 361.28 287.24 361.28C285.746 361.28 284.413 361.627 283.24 362.32C282.066 362.987 281.133 363.933 280.44 365.16C279.746 366.387 279.4 367.827 279.4 369.48C279.4 371.107 279.746 372.547 280.44 373.8C281.133 375.027 282.066 375.987 283.24 376.68C284.413 377.347 285.733 377.68 287.2 377.68ZM309.358 380.2C307.624 380.2 305.984 379.96 304.438 379.48C302.891 378.973 301.678 378.347 300.798 377.6L302.078 375.36C302.931 376 304.024 376.56 305.358 377.04C306.691 377.493 308.091 377.72 309.558 377.72C311.558 377.72 312.998 377.413 313.878 376.8C314.758 376.16 315.198 375.32 315.198 374.28C315.198 373.507 314.944 372.907 314.438 372.48C313.958 372.027 313.318 371.693 312.518 371.48C311.718 371.24 310.824 371.04 309.838 370.88C308.851 370.72 307.864 370.533 306.878 370.32C305.918 370.107 305.038 369.8 304.238 369.4C303.438 368.973 302.784 368.4 302.278 367.68C301.798 366.96 301.558 366 301.558 364.8C301.558 363.653 301.878 362.627 302.518 361.72C303.158 360.813 304.091 360.107 305.318 359.6C306.571 359.067 308.091 358.8 309.878 358.8C311.238 358.8 312.598 358.987 313.958 359.36C315.318 359.707 316.438 360.173 317.318 360.76L316.078 363.04C315.144 362.4 314.144 361.947 313.078 361.68C312.011 361.387 310.944 361.24 309.878 361.24C307.984 361.24 306.584 361.573 305.678 362.24C304.798 362.88 304.358 363.707 304.358 364.72C304.358 365.52 304.598 366.147 305.078 366.6C305.584 367.053 306.238 367.413 307.038 367.68C307.864 367.92 308.758 368.12 309.718 368.28C310.704 368.44 311.678 368.64 312.638 368.88C313.624 369.093 314.518 369.4 315.318 369.8C316.144 370.173 316.798 370.72 317.278 371.44C317.784 372.133 318.038 373.053 318.038 374.2C318.038 375.427 317.691 376.493 316.998 377.4C316.331 378.28 315.344 378.973 314.038 379.48C312.758 379.96 311.198 380.2 309.358 380.2ZM119.966 413.52H134.766V416.04H119.966V413.52ZM120.286 426.44H137.126V429H117.326V401H136.526V403.56H120.286V426.44ZM151.531 429.2C149.531 429.2 147.731 428.747 146.131 427.84C144.558 426.933 143.318 425.68 142.411 424.08C141.504 422.48 141.051 420.613 141.051 418.48C141.051 416.373 141.504 414.52 142.411 412.92C143.318 411.293 144.558 410.04 146.131 409.16C147.731 408.253 149.531 407.8 151.531 407.8C153.398 407.8 155.051 408.213 156.491 409.04C157.958 409.867 159.118 411.08 159.971 412.68C160.824 414.253 161.251 416.187 161.251 418.48C161.251 420.773 160.811 422.72 159.931 424.32C159.078 425.893 157.918 427.107 156.451 427.96C155.011 428.787 153.371 429.2 151.531 429.2ZM151.731 426.68C153.224 426.68 154.558 426.347 155.731 425.68C156.931 424.987 157.864 424.027 158.531 422.8C159.224 421.547 159.571 420.107 159.571 418.48C159.571 416.853 159.224 415.427 158.531 414.2C157.864 412.973 156.931 412.013 155.731 411.32C154.558 410.627 153.224 410.28 151.731 410.28C150.264 410.28 148.944 410.627 147.771 411.32C146.598 412.013 145.664 412.973 144.971 414.2C144.278 415.427 143.931 416.853 143.931 418.48C143.931 420.107 144.278 421.547 144.971 422.8C145.664 424.027 146.598 424.987 147.771 425.68C148.944 426.347 150.264 426.68 151.731 426.68ZM159.531 436.76V422.76L159.931 418.52L159.651 414.32V408H162.371V436.76H159.531ZM178.96 429.2C177.174 429.2 175.614 428.867 174.28 428.2C172.947 427.533 171.907 426.533 171.16 425.2C170.44 423.867 170.08 422.2 170.08 420.2V408H172.92V419.88C172.92 422.12 173.467 423.813 174.56 424.96C175.68 426.08 177.24 426.64 179.24 426.64C180.707 426.64 181.974 426.347 183.04 425.76C184.134 425.147 184.96 424.267 185.52 423.12C186.107 421.973 186.4 420.6 186.4 419V408H189.24V429H186.52V423.24L186.96 424.28C186.294 425.827 185.254 427.04 183.84 427.92C182.454 428.773 180.827 429.2 178.96 429.2ZM197.155 429V408H199.995V429H197.155ZM198.595 403.36C198.009 403.36 197.515 403.16 197.115 402.76C196.715 402.36 196.515 401.88 196.515 401.32C196.515 400.76 196.715 400.293 197.115 399.92C197.515 399.52 198.009 399.32 198.595 399.32C199.182 399.32 199.675 399.507 200.075 399.88C200.475 400.253 200.675 400.72 200.675 401.28C200.675 401.867 200.475 402.36 200.075 402.76C199.702 403.16 199.209 403.36 198.595 403.36ZM218.738 429.2C216.924 429.2 215.284 428.787 213.818 427.96C212.351 427.107 211.178 425.893 210.298 424.32C209.444 422.72 209.018 420.773 209.018 418.48C209.018 416.187 209.444 414.253 210.298 412.68C211.151 411.08 212.311 409.867 213.778 409.04C215.244 408.213 216.898 407.8 218.738 407.8C220.738 407.8 222.524 408.253 224.098 409.16C225.698 410.04 226.951 411.293 227.858 412.92C228.764 414.52 229.218 416.373 229.218 418.48C229.218 420.613 228.764 422.48 227.858 424.08C226.951 425.68 225.698 426.933 224.098 427.84C222.524 428.747 220.738 429.2 218.738 429.2ZM207.898 436.76V408H210.618V414.32L210.338 418.52L210.738 422.76V436.76H207.898ZM218.538 426.68C220.031 426.68 221.364 426.347 222.538 425.68C223.711 424.987 224.644 424.027 225.338 422.8C226.031 421.547 226.378 420.107 226.378 418.48C226.378 416.853 226.031 415.427 225.338 414.2C224.644 412.973 223.711 412.013 222.538 411.32C221.364 410.627 220.031 410.28 218.538 410.28C217.044 410.28 215.698 410.627 214.497 411.32C213.324 412.013 212.391 412.973 211.698 414.2C211.031 415.427 210.698 416.853 210.698 418.48C210.698 420.107 211.031 421.547 211.698 422.8C212.391 424.027 213.324 424.987 214.497 425.68C215.698 426.347 217.044 426.68 218.538 426.68ZM248.05 429V424.36L247.93 423.6V415.84C247.93 414.053 247.423 412.68 246.41 411.72C245.423 410.76 243.943 410.28 241.97 410.28C240.61 410.28 239.316 410.507 238.09 410.96C236.863 411.413 235.823 412.013 234.97 412.76L233.69 410.64C234.756 409.733 236.036 409.04 237.53 408.56C239.023 408.053 240.596 407.8 242.25 407.8C244.97 407.8 247.063 408.48 248.53 409.84C250.023 411.173 250.77 413.213 250.77 415.96V429H248.05ZM240.81 429.2C239.236 429.2 237.863 428.947 236.69 428.44C235.543 427.907 234.663 427.187 234.05 426.28C233.436 425.347 233.13 424.28 233.13 423.08C233.13 421.987 233.383 421 233.89 420.12C234.423 419.213 235.276 418.493 236.45 417.96C237.65 417.4 239.25 417.12 241.25 417.12H248.49V419.24H241.33C239.303 419.24 237.89 419.6 237.09 420.32C236.316 421.04 235.93 421.933 235.93 423C235.93 424.2 236.396 425.16 237.33 425.88C238.263 426.6 239.57 426.96 241.25 426.96C242.85 426.96 244.223 426.6 245.37 425.88C246.543 425.133 247.396 424.067 247.93 422.68L248.57 424.64C248.036 426.027 247.103 427.133 245.77 427.96C244.463 428.787 242.81 429.2 240.81 429.2ZM284.723 407.8C286.43 407.8 287.91 408.133 289.163 408.8C290.443 409.44 291.43 410.427 292.123 411.76C292.843 413.093 293.203 414.773 293.203 416.8V429H290.363V417.08C290.363 414.867 289.83 413.2 288.763 412.08C287.723 410.933 286.243 410.36 284.323 410.36C282.883 410.36 281.63 410.667 280.563 411.28C279.523 411.867 278.71 412.733 278.123 413.88C277.563 415 277.283 416.36 277.283 417.96V429H274.443V417.08C274.443 414.867 273.91 413.2 272.843 412.08C271.777 410.933 270.283 410.36 268.363 410.36C266.95 410.36 265.71 410.667 264.643 411.28C263.577 411.867 262.75 412.733 262.163 413.88C261.603 415 261.323 416.36 261.323 417.96V429H258.483V408H261.203V413.68L260.763 412.68C261.403 411.16 262.43 409.973 263.843 409.12C265.283 408.24 266.977 407.8 268.923 407.8C270.977 407.8 272.723 408.32 274.163 409.36C275.603 410.373 276.537 411.907 276.963 413.96L275.843 413.52C276.457 411.813 277.537 410.44 279.083 409.4C280.657 408.333 282.537 407.8 284.723 407.8ZM309.825 429.2C307.639 429.2 305.719 428.747 304.065 427.84C302.412 426.907 301.119 425.64 300.185 424.04C299.252 422.413 298.785 420.56 298.785 418.48C298.785 416.4 299.225 414.56 300.105 412.96C301.012 411.36 302.239 410.107 303.785 409.2C305.359 408.267 307.119 407.8 309.065 407.8C311.039 407.8 312.785 408.253 314.305 409.16C315.852 410.04 317.065 411.293 317.945 412.92C318.825 414.52 319.265 416.373 319.265 418.48C319.265 418.613 319.252 418.76 319.225 418.92C319.225 419.053 319.225 419.2 319.225 419.36H300.945V417.24H317.705L316.585 418.08C316.585 416.56 316.252 415.213 315.585 414.04C314.945 412.84 314.065 411.907 312.945 411.24C311.825 410.573 310.532 410.24 309.065 410.24C307.625 410.24 306.332 410.573 305.185 411.24C304.039 411.907 303.145 412.84 302.505 414.04C301.865 415.24 301.545 416.613 301.545 418.16V418.6C301.545 420.2 301.892 421.613 302.585 422.84C303.305 424.04 304.292 424.987 305.545 425.68C306.825 426.347 308.279 426.68 309.905 426.68C311.185 426.68 312.372 426.453 313.465 426C314.585 425.547 315.545 424.853 316.345 423.92L317.945 425.76C317.012 426.88 315.839 427.733 314.425 428.32C313.039 428.907 311.505 429.2 309.825 429.2ZM335.766 407.8C337.473 407.8 338.966 408.133 340.246 408.8C341.553 409.44 342.566 410.427 343.286 411.76C344.033 413.093 344.406 414.773 344.406 416.8V429H341.566V417.08C341.566 414.867 341.006 413.2 339.886 412.08C338.793 410.933 337.246 410.36 335.246 410.36C333.753 410.36 332.446 410.667 331.326 411.28C330.233 411.867 329.379 412.733 328.766 413.88C328.179 415 327.886 416.36 327.886 417.96V429H325.046V408H327.766V413.76L327.326 412.68C327.993 411.16 329.059 409.973 330.526 409.12C331.993 408.24 333.739 407.8 335.766 407.8ZM358.717 429.2C356.744 429.2 355.224 428.667 354.157 427.6C353.091 426.533 352.557 425.027 352.557 423.08V403.36H355.397V422.92C355.397 424.147 355.704 425.093 356.317 425.76C356.957 426.427 357.864 426.76 359.037 426.76C360.291 426.76 361.331 426.4 362.157 425.68L363.157 427.72C362.597 428.227 361.917 428.6 361.117 428.84C360.344 429.08 359.544 429.2 358.717 429.2ZM348.797 410.36V408H361.797V410.36H348.797ZM376.145 429.2C374.118 429.2 372.292 428.747 370.665 427.84C369.065 426.907 367.798 425.64 366.865 424.04C365.932 422.413 365.465 420.56 365.465 418.48C365.465 416.373 365.932 414.52 366.865 412.92C367.798 411.32 369.065 410.067 370.665 409.16C372.265 408.253 374.092 407.8 376.145 407.8C378.225 407.8 380.065 408.253 381.665 409.16C383.292 410.067 384.558 411.32 385.465 412.92C386.398 414.52 386.865 416.373 386.865 418.48C386.865 420.56 386.398 422.413 385.465 424.04C384.558 425.64 383.292 426.907 381.665 427.84C380.038 428.747 378.198 429.2 376.145 429.2ZM376.145 426.68C377.665 426.68 379.012 426.347 380.185 425.68C381.358 424.987 382.278 424.027 382.945 422.8C383.638 421.547 383.985 420.107 383.985 418.48C383.985 416.827 383.638 415.387 382.945 414.16C382.278 412.933 381.358 411.987 380.185 411.32C379.012 410.627 377.678 410.28 376.185 410.28C374.692 410.28 373.358 410.627 372.185 411.32C371.012 411.987 370.078 412.933 369.385 414.16C368.692 415.387 368.345 416.827 368.345 418.48C368.345 420.107 368.692 421.547 369.385 422.8C370.078 424.027 371.012 424.987 372.185 425.68C373.358 426.347 374.678 426.68 376.145 426.68ZM398.303 429.2C396.57 429.2 394.93 428.96 393.383 428.48C391.836 427.973 390.623 427.347 389.743 426.6L391.023 424.36C391.876 425 392.97 425.56 394.303 426.04C395.636 426.493 397.036 426.72 398.503 426.72C400.503 426.72 401.943 426.413 402.823 425.8C403.703 425.16 404.143 424.32 404.143 423.28C404.143 422.507 403.89 421.907 403.383 421.48C402.903 421.027 402.263 420.693 401.463 420.48C400.663 420.24 399.77 420.04 398.783 419.88C397.796 419.72 396.81 419.533 395.823 419.32C394.863 419.107 393.983 418.8 393.183 418.4C392.383 417.973 391.73 417.4 391.223 416.68C390.743 415.96 390.503 415 390.503 413.8C390.503 412.653 390.823 411.627 391.463 410.72C392.103 409.813 393.036 409.107 394.263 408.6C395.516 408.067 397.036 407.8 398.823 407.8C400.183 407.8 401.543 407.987 402.903 408.36C404.263 408.707 405.383 409.173 406.263 409.76L405.023 412.04C404.09 411.4 403.09 410.947 402.023 410.68C400.956 410.387 399.89 410.24 398.823 410.24C396.93 410.24 395.53 410.573 394.623 411.24C393.743 411.88 393.303 412.707 393.303 413.72C393.303 414.52 393.543 415.147 394.023 415.6C394.53 416.053 395.183 416.413 395.983 416.68C396.81 416.92 397.703 417.12 398.663 417.28C399.65 417.44 400.623 417.64 401.583 417.88C402.57 418.093 403.463 418.4 404.263 418.8C405.09 419.173 405.743 419.72 406.223 420.44C406.73 421.133 406.983 422.053 406.983 423.2C406.983 424.427 406.636 425.493 405.943 426.4C405.276 427.28 404.29 427.973 402.983 428.48C401.703 428.96 400.143 429.2 398.303 429.2Z" fill="white"/>
<path d="M260 112.5C260 109.185 261.317 106.005 263.661 103.661C266.005 101.317 269.185 100 272.5 100H347.5C350.815 100 353.995 101.317 356.339 103.661C358.683 106.005 360 109.185 360 112.5V287.5C360 290.815 358.683 293.995 356.339 296.339C353.995 298.683 350.815 300 347.5 300H272.5C269.185 300 266.005 298.683 263.661 296.339C261.317 293.995 260 290.815 260 287.5V112.5ZM272.5 281.25C272.5 282.908 273.158 284.497 274.331 285.669C275.503 286.842 277.092 287.5 278.75 287.5C280.408 287.5 281.997 286.842 283.169 285.669C284.342 284.497 285 282.908 285 281.25C285 279.592 284.342 278.003 283.169 276.831C281.997 275.658 280.408 275 278.75 275C277.092 275 275.503 275.658 274.331 276.831C273.158 278.003 272.5 279.592 272.5 281.25ZM297.5 281.25C297.5 282.908 298.158 284.497 299.331 285.669C300.503 286.842 302.092 287.5 303.75 287.5C305.408 287.5 306.997 286.842 308.169 285.669C309.342 284.497 310 282.908 310 281.25C310 279.592 309.342 278.003 308.169 276.831C306.997 275.658 305.408 275 303.75 275C302.092 275 300.503 275.658 299.331 276.831C298.158 278.003 297.5 279.592 297.5 281.25ZM278.75 112.5C277.092 112.5 275.503 113.158 274.331 114.331C273.158 115.503 272.5 117.092 272.5 118.75C272.5 120.408 273.158 121.997 274.331 123.169C275.503 124.342 277.092 125 278.75 125H341.25C342.908 125 344.497 124.342 345.669 123.169C346.842 121.997 347.5 120.408 347.5 118.75C347.5 117.092 346.842 115.503 345.669 114.331C344.497 113.158 342.908 112.5 341.25 112.5H278.75ZM272.5 143.75C272.5 145.408 273.158 146.997 274.331 148.169C275.503 149.342 277.092 150 278.75 150H341.25C342.908 150 344.497 149.342 345.669 148.169C346.842 146.997 347.5 145.408 347.5 143.75C347.5 142.092 346.842 140.503 345.669 139.331C344.497 138.158 342.908 137.5 341.25 137.5H278.75C277.092 137.5 275.503 138.158 274.331 139.331C273.158 140.503 272.5 142.092 272.5 143.75ZM178.75 125C173.777 125 169.008 126.975 165.492 130.492C161.975 134.008 160 138.777 160 143.75V231.25C160 236.223 161.975 240.992 165.492 244.508C169.008 248.025 173.777 250 178.75 250H235V275H228.75C227.092 275 225.503 275.658 224.331 276.831C223.158 278.003 222.5 279.592 222.5 281.25C222.5 282.908 223.158 284.497 224.331 285.669C225.503 286.842 227.092 287.5 228.75 287.5H247.5V237.5H178.75C177.092 237.5 175.503 236.842 174.331 235.669C173.158 234.497 172.5 232.908 172.5 231.25V143.75C172.5 142.092 173.158 140.503 174.331 139.331C175.503 138.158 177.092 137.5 178.75 137.5H247.5V125H178.75Z" fill="white"/>
</svg>
